<?xml version="1.0" encoding="UTF-8" standalone="no"?>
<!DOCTYPE svg PUBLIC "-//W3C//DTD SVG 1.1//EN"
 "http://www.w3.org/Graphics/SVG/1.1/DTD/svg11.dtd">
<!-- Generated by graphviz version 7.1.0 (20230121.1956)
 -->
<!-- Title: Tree Pages: 1 -->
<svg width="627pt" height="477pt"
 viewBox="0.00 0.00 627.00 477.00" xmlns="http://www.w3.org/2000/svg" xmlns:xlink="http://www.w3.org/1999/xlink">
<g id="graph0" class="graph" transform="scale(1 1) rotate(0) translate(4 473)">
<title>Tree</title>
<polygon fill="white" stroke="none" points="-4,4 -4,-473 623,-473 623,4 -4,4"/>
<!-- 0 -->
<g id="node1" class="node">
<title>0</title>
<polygon fill="#f5cfb4" stroke="black" points="368,-469 228,-469 228,-401 368,-401 368,-469"/>
<text text-anchor="middle" x="298" y="-453.8" font-family="Helvetica,sans-Serif" font-size="14.00">x[25] &lt;= 0.5</text>
<text text-anchor="middle" x="298" y="-438.8" font-family="Helvetica,sans-Serif" font-size="14.00">gini = 0.473</text>
<text text-anchor="middle" x="298" y="-423.8" font-family="Helvetica,sans-Serif" font-size="14.00">samples = 5330</text>
<text text-anchor="middle" x="298" y="-408.8" font-family="Helvetica,sans-Serif" font-size="14.00">value = [3286, 2044]</text>
</g>
<!-- 1 -->
<g id="node2" class="node">
<title>1</title>
<polygon fill="#f5cdb0" stroke="black" points="293,-365 153,-365 153,-297 293,-297 293,-365"/>
<text text-anchor="middle" x="223" y="-349.8" font-family="Helvetica,sans-Serif" font-size="14.00">x[26] &lt;= 0.5</text>
<text text-anchor="middle" x="223" y="-334.8" font-family="Helvetica,sans-Serif" font-size="14.00">gini = 0.469</text>
<text text-anchor="middle" x="223" y="-319.8" font-family="Helvetica,sans-Serif" font-size="14.00">samples = 4989</text>
<text text-anchor="middle" x="223" y="-304.8" font-family="Helvetica,sans-Serif" font-size="14.00">value = [3118, 1871]</text>
</g>
<!-- 0&#45;&gt;1 -->
<g id="edge1" class="edge">
<title>0&#45;&gt;1</title>
<path fill="none" stroke="black" d="M273.44,-400.6C267.36,-392.32 260.75,-383.34 254.39,-374.69"/>
<polygon fill="black" stroke="black" points="257.25,-372.68 248.51,-366.69 251.61,-376.82 257.25,-372.68"/>
<text text-anchor="middle" x="243.84" y="-386.49" font-family="Helvetica,sans-Serif" font-size="14.00">True</text>
</g>
<!-- 8 -->
<g id="node9" class="node">
<title>8</title>
<polygon fill="#f9fcfe" stroke="black" points="436.5,-365 311.5,-365 311.5,-297 436.5,-297 436.5,-365"/>
<text text-anchor="middle" x="374" y="-349.8" font-family="Helvetica,sans-Serif" font-size="14.00">x[1] &lt;= 8300.0</text>
<text text-anchor="middle" x="374" y="-334.8" font-family="Helvetica,sans-Serif" font-size="14.00">gini = 0.5</text>
<text text-anchor="middle" x="374" y="-319.8" font-family="Helvetica,sans-Serif" font-size="14.00">samples = 341</text>
<text text-anchor="middle" x="374" y="-304.8" font-family="Helvetica,sans-Serif" font-size="14.00">value = [168, 173]</text>
</g>
<!-- 0&#45;&gt;8 -->
<g id="edge8" class="edge">
<title>0&#45;&gt;8</title>
<path fill="none" stroke="black" d="M322.89,-400.6C329.05,-392.32 335.75,-383.34 342.19,-374.69"/>
<polygon fill="black" stroke="black" points="344.99,-376.8 348.15,-366.69 339.37,-372.61 344.99,-376.8"/>
<text text-anchor="middle" x="352.67" y="-386.51" font-family="Helvetica,sans-Serif" font-size="14.00">False</text>
</g>
<!-- 2 -->
<g id="node3" class="node">
<title>2</title>
<polygon fill="#f4caac" stroke="black" points="147,-261 7,-261 7,-193 147,-193 147,-261"/>
<text text-anchor="middle" x="77" y="-245.8" font-family="Helvetica,sans-Serif" font-size="14.00">x[27] &lt;= 0.5</text>
<text text-anchor="middle" x="77" y="-230.8" font-family="Helvetica,sans-Serif" font-size="14.00">gini = 0.465</text>
<text text-anchor="middle" x="77" y="-215.8" font-family="Helvetica,sans-Serif" font-size="14.00">samples = 4724</text>
<text text-anchor="middle" x="77" y="-200.8" font-family="Helvetica,sans-Serif" font-size="14.00">value = [2985, 1739]</text>
</g>
<!-- 1&#45;&gt;2 -->
<g id="edge2" class="edge">
<title>1&#45;&gt;2</title>
<path fill="none" stroke="black" d="M175.19,-296.6C162.09,-287.44 147.74,-277.42 134.17,-267.94"/>
<polygon fill="black" stroke="black" points="136.36,-265.2 126.15,-262.34 132.35,-270.94 136.36,-265.2"/>
</g>
<!-- 7 -->
<g id="node8" class="node">
<title>7</title>
<polygon fill="#fffefe" stroke="black" points="290.5,-253.5 165.5,-253.5 165.5,-200.5 290.5,-200.5 290.5,-253.5"/>
<text text-anchor="middle" x="228" y="-238.3" font-family="Helvetica,sans-Serif" font-size="14.00">gini = 0.5</text>
<text text-anchor="middle" x="228" y="-223.3" font-family="Helvetica,sans-Serif" font-size="14.00">samples = 265</text>
<text text-anchor="middle" x="228" y="-208.3" font-family="Helvetica,sans-Serif" font-size="14.00">value = [133, 132]</text>
</g>
<!-- 1&#45;&gt;7 -->
<g id="edge7" class="edge">
<title>1&#45;&gt;7</title>
<path fill="none" stroke="black" d="M224.64,-296.6C225.13,-286.47 225.68,-275.28 226.19,-264.93"/>
<polygon fill="black" stroke="black" points="229.67,-265.38 226.67,-255.22 222.68,-265.03 229.67,-265.38"/>
</g>
<!-- 3 -->
<g id="node4" class="node">
<title>3</title>
<polygon fill="#f4c9aa" stroke="black" points="140,-149.5 0,-149.5 0,-96.5 140,-96.5 140,-149.5"/>
<text text-anchor="middle" x="70" y="-134.3" font-family="Helvetica,sans-Serif" font-size="14.00">gini = 0.463</text>
<text text-anchor="middle" x="70" y="-119.3" font-family="Helvetica,sans-Serif" font-size="14.00">samples = 4484</text>
<text text-anchor="middle" x="70" y="-104.3" font-family="Helvetica,sans-Serif" font-size="14.00">value = [2854, 1630]</text>
</g>
<!-- 2&#45;&gt;3 -->
<g id="edge3" class="edge">
<title>2&#45;&gt;3</title>
<path fill="none" stroke="black" d="M74.71,-192.6C74.01,-182.47 73.24,-171.28 72.53,-160.93"/>
<polygon fill="black" stroke="black" points="76.04,-160.95 71.87,-151.22 69.06,-161.43 76.04,-160.95"/>
</g>
<!-- 4 -->
<g id="node5" class="node">
<title>4</title>
<polygon fill="#fbeade" stroke="black" points="283.5,-157 158.5,-157 158.5,-89 283.5,-89 283.5,-157"/>
<text text-anchor="middle" x="221" y="-141.8" font-family="Helvetica,sans-Serif" font-size="14.00">x[3] &lt;= 0.5</text>
<text text-anchor="middle" x="221" y="-126.8" font-family="Helvetica,sans-Serif" font-size="14.00">gini = 0.496</text>
<text text-anchor="middle" x="221" y="-111.8" font-family="Helvetica,sans-Serif" font-size="14.00">samples = 240</text>
<text text-anchor="middle" x="221" y="-96.8" font-family="Helvetica,sans-Serif" font-size="14.00">value = [131, 109]</text>
</g>
<!-- 2&#45;&gt;4 -->
<g id="edge4" class="edge">
<title>2&#45;&gt;4</title>
<path fill="none" stroke="black" d="M124.15,-192.6C137.08,-183.44 151.23,-173.42 164.62,-163.94"/>
<polygon fill="black" stroke="black" points="166.37,-166.98 172.51,-158.35 162.32,-161.27 166.37,-166.98"/>
</g>
<!-- 5 -->
<g id="node6" class="node">
<title>5</title>
<polygon fill="#f5cfb4" stroke="black" points="213.5,-53 96.5,-53 96.5,0 213.5,0 213.5,-53"/>
<text text-anchor="middle" x="155" y="-37.8" font-family="Helvetica,sans-Serif" font-size="14.00">gini = 0.472</text>
<text text-anchor="middle" x="155" y="-22.8" font-family="Helvetica,sans-Serif" font-size="14.00">samples = 162</text>
<text text-anchor="middle" x="155" y="-7.8" font-family="Helvetica,sans-Serif" font-size="14.00">value = [100, 62]</text>
</g>
<!-- 4&#45;&gt;5 -->
<g id="edge5" class="edge">
<title>4&#45;&gt;5</title>
<path fill="none" stroke="black" d="M197.73,-88.68C191.85,-80.27 185.52,-71.2 179.58,-62.7"/>
<polygon fill="black" stroke="black" points="182.55,-60.83 173.95,-54.63 176.81,-64.84 182.55,-60.83"/>
</g>
<!-- 6 -->
<g id="node7" class="node">
<title>6</title>
<polygon fill="#bcdef6" stroke="black" points="342,-53 232,-53 232,0 342,0 342,-53"/>
<text text-anchor="middle" x="287" y="-37.8" font-family="Helvetica,sans-Serif" font-size="14.00">gini = 0.479</text>
<text text-anchor="middle" x="287" y="-22.8" font-family="Helvetica,sans-Serif" font-size="14.00">samples = 78</text>
<text text-anchor="middle" x="287" y="-7.8" font-family="Helvetica,sans-Serif" font-size="14.00">value = [31, 47]</text>
</g>
<!-- 4&#45;&gt;6 -->
<g id="edge6" class="edge">
<title>4&#45;&gt;6</title>
<path fill="none" stroke="black" d="M244.27,-88.68C250.15,-80.27 256.48,-71.2 262.42,-62.7"/>
<polygon fill="black" stroke="black" points="265.19,-64.84 268.05,-54.63 259.45,-60.83 265.19,-64.84"/>
</g>
<!-- 9 -->
<g id="node10" class="node">
<title>9</title>
<polygon fill="#ea995f" stroke="black" points="420,-253.5 318,-253.5 318,-200.5 420,-200.5 420,-253.5"/>
<text text-anchor="middle" x="369" y="-238.3" font-family="Helvetica,sans-Serif" font-size="14.00">gini = 0.271</text>
<text text-anchor="middle" x="369" y="-223.3" font-family="Helvetica,sans-Serif" font-size="14.00">samples = 31</text>
<text text-anchor="middle" x="369" y="-208.3" font-family="Helvetica,sans-Serif" font-size="14.00">value = [26, 5]</text>
</g>
<!-- 8&#45;&gt;9 -->
<g id="edge9" class="edge">
<title>8&#45;&gt;9</title>
<path fill="none" stroke="black" d="M372.36,-296.6C371.87,-286.47 371.32,-275.28 370.81,-264.93"/>
<polygon fill="black" stroke="black" points="374.32,-265.03 370.33,-255.22 367.33,-265.38 374.32,-265.03"/>
</g>
<!-- 10 -->
<g id="node11" class="node">
<title>10</title>
<polygon fill="#e0f0fb" stroke="black" points="563.5,-261 438.5,-261 438.5,-193 563.5,-193 563.5,-261"/>
<text text-anchor="middle" x="501" y="-245.8" font-family="Helvetica,sans-Serif" font-size="14.00">x[4] &lt;= 0.5</text>
<text text-anchor="middle" x="501" y="-230.8" font-family="Helvetica,sans-Serif" font-size="14.00">gini = 0.496</text>
<text text-anchor="middle" x="501" y="-215.8" font-family="Helvetica,sans-Serif" font-size="14.00">samples = 310</text>
<text text-anchor="middle" x="501" y="-200.8" font-family="Helvetica,sans-Serif" font-size="14.00">value = [142, 168]</text>
</g>
<!-- 8&#45;&gt;10 -->
<g id="edge10" class="edge">
<title>8&#45;&gt;10</title>
<path fill="none" stroke="black" d="M415.58,-296.6C426.77,-287.62 438.99,-277.81 450.59,-268.49"/>
<polygon fill="black" stroke="black" points="452.54,-271.41 458.14,-262.42 448.15,-265.95 452.54,-271.41"/>
</g>
<!-- 11 -->
<g id="node12" class="node">
<title>11</title>
<polygon fill="#cae5f8" stroke="black" points="490.5,-149.5 365.5,-149.5 365.5,-96.5 490.5,-96.5 490.5,-149.5"/>
<text text-anchor="middle" x="428" y="-134.3" font-family="Helvetica,sans-Serif" font-size="14.00">gini = 0.488</text>
<text text-anchor="middle" x="428" y="-119.3" font-family="Helvetica,sans-Serif" font-size="14.00">samples = 267</text>
<text text-anchor="middle" x="428" y="-104.3" font-family="Helvetica,sans-Serif" font-size="14.00">value = [113, 154]</text>
</g>
<!-- 10&#45;&gt;11 -->
<g id="edge11" class="edge">
<title>10&#45;&gt;11</title>
<path fill="none" stroke="black" d="M477.1,-192.6C469.38,-181.82 460.8,-169.83 453.01,-158.94"/>
<polygon fill="black" stroke="black" points="455.94,-157.03 447.28,-150.94 450.25,-161.11 455.94,-157.03"/>
</g>
<!-- 12 -->
<g id="node13" class="node">
<title>12</title>
<polygon fill="#f2be99" stroke="black" points="619,-149.5 509,-149.5 509,-96.5 619,-96.5 619,-149.5"/>
<text text-anchor="middle" x="564" y="-134.3" font-family="Helvetica,sans-Serif" font-size="14.00">gini = 0.439</text>
<text text-anchor="middle" x="564" y="-119.3" font-family="Helvetica,sans-Serif" font-size="14.00">samples = 43</text>
<text text-anchor="middle" x="564" y="-104.3" font-family="Helvetica,sans-Serif" font-size="14.00">value = [29, 14]</text>
</g>
<!-- 10&#45;&gt;12 -->
<g id="edge12" class="edge">
<title>10&#45;&gt;12</title>
<path fill="none" stroke="black" d="M521.63,-192.6C528.22,-181.93 535.54,-170.08 542.21,-159.27"/>
<polygon fill="black" stroke="black" points="545.05,-161.34 547.33,-150.99 539.09,-157.66 545.05,-161.34"/>
</g>
</g>
</svg>
