<?xml version="1.0" encoding="UTF-8" standalone="no"?>
<!DOCTYPE svg PUBLIC "-//W3C//DTD SVG 1.1//EN"
 "http://www.w3.org/Graphics/SVG/1.1/DTD/svg11.dtd">
<!-- Generated by graphviz version 7.1.0 (20230121.1956)
 -->
<!-- Title: Tree Pages: 1 -->
<svg width="638pt" height="373pt"
 viewBox="0.00 0.00 637.50 373.00" xmlns="http://www.w3.org/2000/svg" xmlns:xlink="http://www.w3.org/1999/xlink">
<g id="graph0" class="graph" transform="scale(1 1) rotate(0) translate(4 369)">
<title>Tree</title>
<polygon fill="white" stroke="none" points="-4,4 -4,-369 633.5,-369 633.5,4 -4,4"/>
<!-- 0 -->
<g id="node1" class="node">
<title>0</title>
<polygon fill="#f5ceb2" stroke="black" points="434,-365 294,-365 294,-297 434,-297 434,-365"/>
<text text-anchor="middle" x="364" y="-349.8" font-family="Helvetica,sans-Serif" font-size="14.00">x[25] &lt;= 0.5</text>
<text text-anchor="middle" x="364" y="-334.8" font-family="Helvetica,sans-Serif" font-size="14.00">gini = 0.471</text>
<text text-anchor="middle" x="364" y="-319.8" font-family="Helvetica,sans-Serif" font-size="14.00">samples = 5330</text>
<text text-anchor="middle" x="364" y="-304.8" font-family="Helvetica,sans-Serif" font-size="14.00">value = [3308, 2022]</text>
</g>
<!-- 1 -->
<g id="node2" class="node">
<title>1</title>
<polygon fill="#f4cbae" stroke="black" points="359,-261 219,-261 219,-193 359,-193 359,-261"/>
<text text-anchor="middle" x="289" y="-245.8" font-family="Helvetica,sans-Serif" font-size="14.00">x[26] &lt;= 0.5</text>
<text text-anchor="middle" x="289" y="-230.8" font-family="Helvetica,sans-Serif" font-size="14.00">gini = 0.467</text>
<text text-anchor="middle" x="289" y="-215.8" font-family="Helvetica,sans-Serif" font-size="14.00">samples = 4985</text>
<text text-anchor="middle" x="289" y="-200.8" font-family="Helvetica,sans-Serif" font-size="14.00">value = [3135, 1850]</text>
</g>
<!-- 0&#45;&gt;1 -->
<g id="edge1" class="edge">
<title>0&#45;&gt;1</title>
<path fill="none" stroke="black" d="M339.44,-296.6C333.36,-288.32 326.75,-279.34 320.39,-270.69"/>
<polygon fill="black" stroke="black" points="323.25,-268.68 314.51,-262.69 317.61,-272.82 323.25,-268.68"/>
<text text-anchor="middle" x="309.84" y="-282.49" font-family="Helvetica,sans-Serif" font-size="14.00">True</text>
</g>
<!-- 6 -->
<g id="node7" class="node">
<title>6</title>
<polygon fill="#fffefe" stroke="black" points="502.5,-261 377.5,-261 377.5,-193 502.5,-193 502.5,-261"/>
<text text-anchor="middle" x="440" y="-245.8" font-family="Helvetica,sans-Serif" font-size="14.00">x[1] &lt;= 8300.0</text>
<text text-anchor="middle" x="440" y="-230.8" font-family="Helvetica,sans-Serif" font-size="14.00">gini = 0.5</text>
<text text-anchor="middle" x="440" y="-215.8" font-family="Helvetica,sans-Serif" font-size="14.00">samples = 345</text>
<text text-anchor="middle" x="440" y="-200.8" font-family="Helvetica,sans-Serif" font-size="14.00">value = [173, 172]</text>
</g>
<!-- 0&#45;&gt;6 -->
<g id="edge6" class="edge">
<title>0&#45;&gt;6</title>
<path fill="none" stroke="black" d="M388.89,-296.6C395.05,-288.32 401.75,-279.34 408.19,-270.69"/>
<polygon fill="black" stroke="black" points="410.99,-272.8 414.15,-262.69 405.37,-268.61 410.99,-272.8"/>
<text text-anchor="middle" x="418.67" y="-282.51" font-family="Helvetica,sans-Serif" font-size="14.00">False</text>
</g>
<!-- 2 -->
<g id="node3" class="node">
<title>2</title>
<polygon fill="#f4c9ab" stroke="black" points="213,-157 73,-157 73,-89 213,-89 213,-157"/>
<text text-anchor="middle" x="143" y="-141.8" font-family="Helvetica,sans-Serif" font-size="14.00">x[0] &lt;= 913850.0</text>
<text text-anchor="middle" x="143" y="-126.8" font-family="Helvetica,sans-Serif" font-size="14.00">gini = 0.464</text>
<text text-anchor="middle" x="143" y="-111.8" font-family="Helvetica,sans-Serif" font-size="14.00">samples = 4724</text>
<text text-anchor="middle" x="143" y="-96.8" font-family="Helvetica,sans-Serif" font-size="14.00">value = [2999, 1725]</text>
</g>
<!-- 1&#45;&gt;2 -->
<g id="edge2" class="edge">
<title>1&#45;&gt;2</title>
<path fill="none" stroke="black" d="M241.19,-192.6C228.09,-183.44 213.74,-173.42 200.17,-163.94"/>
<polygon fill="black" stroke="black" points="202.36,-161.2 192.15,-158.34 198.35,-166.94 202.36,-161.2"/>
</g>
<!-- 5 -->
<g id="node6" class="node">
<title>5</title>
<polygon fill="#fdf5ef" stroke="black" points="356.5,-149.5 231.5,-149.5 231.5,-96.5 356.5,-96.5 356.5,-149.5"/>
<text text-anchor="middle" x="294" y="-134.3" font-family="Helvetica,sans-Serif" font-size="14.00">gini = 0.499</text>
<text text-anchor="middle" x="294" y="-119.3" font-family="Helvetica,sans-Serif" font-size="14.00">samples = 261</text>
<text text-anchor="middle" x="294" y="-104.3" font-family="Helvetica,sans-Serif" font-size="14.00">value = [136, 125]</text>
</g>
<!-- 1&#45;&gt;5 -->
<g id="edge5" class="edge">
<title>1&#45;&gt;5</title>
<path fill="none" stroke="black" d="M290.64,-192.6C291.13,-182.47 291.68,-171.28 292.19,-160.93"/>
<polygon fill="black" stroke="black" points="295.67,-161.38 292.67,-151.22 288.68,-161.03 295.67,-161.38"/>
</g>
<!-- 3 -->
<g id="node4" class="node">
<title>3</title>
<polygon fill="#f4cbad" stroke="black" points="140,-53 0,-53 0,0 140,0 140,-53"/>
<text text-anchor="middle" x="70" y="-37.8" font-family="Helvetica,sans-Serif" font-size="14.00">gini = 0.466</text>
<text text-anchor="middle" x="70" y="-22.8" font-family="Helvetica,sans-Serif" font-size="14.00">samples = 4517</text>
<text text-anchor="middle" x="70" y="-7.8" font-family="Helvetica,sans-Serif" font-size="14.00">value = [2845, 1672]</text>
</g>
<!-- 2&#45;&gt;3 -->
<g id="edge3" class="edge">
<title>2&#45;&gt;3</title>
<path fill="none" stroke="black" d="M117.26,-88.68C110.69,-80.18 103.61,-71.01 96.98,-62.42"/>
<polygon fill="black" stroke="black" points="99.81,-60.37 90.93,-54.59 94.27,-64.65 99.81,-60.37"/>
</g>
<!-- 4 -->
<g id="node5" class="node">
<title>4</title>
<polygon fill="#eeac7d" stroke="black" points="275.5,-53 158.5,-53 158.5,0 275.5,0 275.5,-53"/>
<text text-anchor="middle" x="217" y="-37.8" font-family="Helvetica,sans-Serif" font-size="14.00">gini = 0.381</text>
<text text-anchor="middle" x="217" y="-22.8" font-family="Helvetica,sans-Serif" font-size="14.00">samples = 207</text>
<text text-anchor="middle" x="217" y="-7.8" font-family="Helvetica,sans-Serif" font-size="14.00">value = [154, 53]</text>
</g>
<!-- 2&#45;&gt;4 -->
<g id="edge4" class="edge">
<title>2&#45;&gt;4</title>
<path fill="none" stroke="black" d="M169.09,-88.68C175.75,-80.18 182.93,-71.01 189.65,-62.42"/>
<polygon fill="black" stroke="black" points="192.38,-64.62 195.79,-54.59 186.87,-60.3 192.38,-64.62"/>
</g>
<!-- 7 -->
<g id="node8" class="node">
<title>7</title>
<polygon fill="#ea995f" stroke="black" points="486,-149.5 384,-149.5 384,-96.5 486,-96.5 486,-149.5"/>
<text text-anchor="middle" x="435" y="-134.3" font-family="Helvetica,sans-Serif" font-size="14.00">gini = 0.271</text>
<text text-anchor="middle" x="435" y="-119.3" font-family="Helvetica,sans-Serif" font-size="14.00">samples = 31</text>
<text text-anchor="middle" x="435" y="-104.3" font-family="Helvetica,sans-Serif" font-size="14.00">value = [26, 5]</text>
</g>
<!-- 6&#45;&gt;7 -->
<g id="edge7" class="edge">
<title>6&#45;&gt;7</title>
<path fill="none" stroke="black" d="M438.36,-192.6C437.87,-182.47 437.32,-171.28 436.81,-160.93"/>
<polygon fill="black" stroke="black" points="440.32,-161.03 436.33,-151.22 433.33,-161.38 440.32,-161.03"/>
</g>
<!-- 8 -->
<g id="node9" class="node">
<title>8</title>
<polygon fill="#e7f3fc" stroke="black" points="629.5,-149.5 504.5,-149.5 504.5,-96.5 629.5,-96.5 629.5,-149.5"/>
<text text-anchor="middle" x="567" y="-134.3" font-family="Helvetica,sans-Serif" font-size="14.00">gini = 0.498</text>
<text text-anchor="middle" x="567" y="-119.3" font-family="Helvetica,sans-Serif" font-size="14.00">samples = 314</text>
<text text-anchor="middle" x="567" y="-104.3" font-family="Helvetica,sans-Serif" font-size="14.00">value = [147, 167]</text>
</g>
<!-- 6&#45;&gt;8 -->
<g id="edge8" class="edge">
<title>6&#45;&gt;8</title>
<path fill="none" stroke="black" d="M481.58,-192.6C495.96,-181.05 512.05,-168.13 526.35,-156.65"/>
<polygon fill="black" stroke="black" points="528.21,-159.64 533.81,-150.65 523.83,-154.19 528.21,-159.64"/>
</g>
</g>
</svg>
