<?xml version="1.0" encoding="UTF-8" standalone="no"?>
<!DOCTYPE svg PUBLIC "-//W3C//DTD SVG 1.1//EN"
 "http://www.w3.org/Graphics/SVG/1.1/DTD/svg11.dtd">
<!-- Generated by graphviz version 7.1.0 (20230121.1956)
 -->
<!-- Title: Tree Pages: 1 -->
<svg width="620pt" height="477pt"
 viewBox="0.00 0.00 620.00 477.00" xmlns="http://www.w3.org/2000/svg" xmlns:xlink="http://www.w3.org/1999/xlink">
<g id="graph0" class="graph" transform="scale(1 1) rotate(0) translate(4 473)">
<title>Tree</title>
<polygon fill="white" stroke="none" points="-4,4 -4,-473 616,-473 616,4 -4,4"/>
<!-- 0 -->
<g id="node1" class="node">
<title>0</title>
<polygon fill="#f5d0b5" stroke="black" points="361,-469 221,-469 221,-401 361,-401 361,-469"/>
<text text-anchor="middle" x="291" y="-453.8" font-family="Helvetica,sans-Serif" font-size="14.00">x[25] &lt;= 0.5</text>
<text text-anchor="middle" x="291" y="-438.8" font-family="Helvetica,sans-Serif" font-size="14.00">gini = 0.474</text>
<text text-anchor="middle" x="291" y="-423.8" font-family="Helvetica,sans-Serif" font-size="14.00">samples = 5330</text>
<text text-anchor="middle" x="291" y="-408.8" font-family="Helvetica,sans-Serif" font-size="14.00">value = [3276, 2054]</text>
</g>
<!-- 1 -->
<g id="node2" class="node">
<title>1</title>
<polygon fill="#f5cdb1" stroke="black" points="285.5,-365 146.5,-365 146.5,-297 285.5,-297 285.5,-365"/>
<text text-anchor="middle" x="216" y="-349.8" font-family="Helvetica,sans-Serif" font-size="14.00">x[26] &lt;= 0.5</text>
<text text-anchor="middle" x="216" y="-334.8" font-family="Helvetica,sans-Serif" font-size="14.00">gini = 0.47</text>
<text text-anchor="middle" x="216" y="-319.8" font-family="Helvetica,sans-Serif" font-size="14.00">samples = 4994</text>
<text text-anchor="middle" x="216" y="-304.8" font-family="Helvetica,sans-Serif" font-size="14.00">value = [3111, 1883]</text>
</g>
<!-- 0&#45;&gt;1 -->
<g id="edge1" class="edge">
<title>0&#45;&gt;1</title>
<path fill="none" stroke="black" d="M266.44,-400.6C260.36,-392.32 253.75,-383.34 247.39,-374.69"/>
<polygon fill="black" stroke="black" points="250.25,-372.68 241.51,-366.69 244.61,-376.82 250.25,-372.68"/>
<text text-anchor="middle" x="236.84" y="-386.49" font-family="Helvetica,sans-Serif" font-size="14.00">True</text>
</g>
<!-- 8 -->
<g id="node9" class="node">
<title>8</title>
<polygon fill="#f8fcfe" stroke="black" points="428.5,-365 303.5,-365 303.5,-297 428.5,-297 428.5,-365"/>
<text text-anchor="middle" x="366" y="-349.8" font-family="Helvetica,sans-Serif" font-size="14.00">x[1] &lt;= 8487.5</text>
<text text-anchor="middle" x="366" y="-334.8" font-family="Helvetica,sans-Serif" font-size="14.00">gini = 0.5</text>
<text text-anchor="middle" x="366" y="-319.8" font-family="Helvetica,sans-Serif" font-size="14.00">samples = 336</text>
<text text-anchor="middle" x="366" y="-304.8" font-family="Helvetica,sans-Serif" font-size="14.00">value = [165, 171]</text>
</g>
<!-- 0&#45;&gt;8 -->
<g id="edge8" class="edge">
<title>0&#45;&gt;8</title>
<path fill="none" stroke="black" d="M315.56,-400.6C321.64,-392.32 328.25,-383.34 334.61,-374.69"/>
<polygon fill="black" stroke="black" points="337.39,-376.82 340.49,-366.69 331.75,-372.68 337.39,-376.82"/>
<text text-anchor="middle" x="345.16" y="-386.49" font-family="Helvetica,sans-Serif" font-size="14.00">False</text>
</g>
<!-- 2 -->
<g id="node3" class="node">
<title>2</title>
<polygon fill="#f4cbae" stroke="black" points="140,-261 0,-261 0,-193 140,-193 140,-261"/>
<text text-anchor="middle" x="70" y="-245.8" font-family="Helvetica,sans-Serif" font-size="14.00">x[1] &lt;= 5164.0</text>
<text text-anchor="middle" x="70" y="-230.8" font-family="Helvetica,sans-Serif" font-size="14.00">gini = 0.467</text>
<text text-anchor="middle" x="70" y="-215.8" font-family="Helvetica,sans-Serif" font-size="14.00">samples = 4733</text>
<text text-anchor="middle" x="70" y="-200.8" font-family="Helvetica,sans-Serif" font-size="14.00">value = [2979, 1754]</text>
</g>
<!-- 1&#45;&gt;2 -->
<g id="edge2" class="edge">
<title>1&#45;&gt;2</title>
<path fill="none" stroke="black" d="M168.19,-296.6C155.09,-287.44 140.74,-277.42 127.17,-267.94"/>
<polygon fill="black" stroke="black" points="129.36,-265.2 119.15,-262.34 125.35,-270.94 129.36,-265.2"/>
</g>
<!-- 7 -->
<g id="node8" class="node">
<title>7</title>
<polygon fill="#fefcfa" stroke="black" points="283.5,-253.5 158.5,-253.5 158.5,-200.5 283.5,-200.5 283.5,-253.5"/>
<text text-anchor="middle" x="221" y="-238.3" font-family="Helvetica,sans-Serif" font-size="14.00">gini = 0.5</text>
<text text-anchor="middle" x="221" y="-223.3" font-family="Helvetica,sans-Serif" font-size="14.00">samples = 261</text>
<text text-anchor="middle" x="221" y="-208.3" font-family="Helvetica,sans-Serif" font-size="14.00">value = [132, 129]</text>
</g>
<!-- 1&#45;&gt;7 -->
<g id="edge7" class="edge">
<title>1&#45;&gt;7</title>
<path fill="none" stroke="black" d="M217.64,-296.6C218.13,-286.47 218.68,-275.28 219.19,-264.93"/>
<polygon fill="black" stroke="black" points="222.67,-265.38 219.67,-255.22 215.68,-265.03 222.67,-265.38"/>
</g>
<!-- 3 -->
<g id="node4" class="node">
<title>3</title>
<polygon fill="#ea9b62" stroke="black" points="118,-149.5 8,-149.5 8,-96.5 118,-96.5 118,-149.5"/>
<text text-anchor="middle" x="63" y="-134.3" font-family="Helvetica,sans-Serif" font-size="14.00">gini = 0.282</text>
<text text-anchor="middle" x="63" y="-119.3" font-family="Helvetica,sans-Serif" font-size="14.00">samples = 100</text>
<text text-anchor="middle" x="63" y="-104.3" font-family="Helvetica,sans-Serif" font-size="14.00">value = [83, 17]</text>
</g>
<!-- 2&#45;&gt;3 -->
<g id="edge3" class="edge">
<title>2&#45;&gt;3</title>
<path fill="none" stroke="black" d="M67.71,-192.6C67.01,-182.47 66.24,-171.28 65.53,-160.93"/>
<polygon fill="black" stroke="black" points="69.04,-160.95 64.87,-151.22 62.06,-161.43 69.04,-160.95"/>
</g>
<!-- 4 -->
<g id="node5" class="node">
<title>4</title>
<polygon fill="#f5cdb0" stroke="black" points="276,-157 136,-157 136,-89 276,-89 276,-157"/>
<text text-anchor="middle" x="206" y="-141.8" font-family="Helvetica,sans-Serif" font-size="14.00">x[27] &lt;= 0.5</text>
<text text-anchor="middle" x="206" y="-126.8" font-family="Helvetica,sans-Serif" font-size="14.00">gini = 0.469</text>
<text text-anchor="middle" x="206" y="-111.8" font-family="Helvetica,sans-Serif" font-size="14.00">samples = 4633</text>
<text text-anchor="middle" x="206" y="-96.8" font-family="Helvetica,sans-Serif" font-size="14.00">value = [2896, 1737]</text>
</g>
<!-- 2&#45;&gt;4 -->
<g id="edge4" class="edge">
<title>2&#45;&gt;4</title>
<path fill="none" stroke="black" d="M114.53,-192.6C126.62,-183.53 139.85,-173.61 152.39,-164.21"/>
<polygon fill="black" stroke="black" points="154.26,-167.18 160.16,-158.38 150.06,-161.58 154.26,-167.18"/>
</g>
<!-- 5 -->
<g id="node6" class="node">
<title>5</title>
<polygon fill="#f4cbad" stroke="black" points="201,-53 61,-53 61,0 201,0 201,-53"/>
<text text-anchor="middle" x="131" y="-37.8" font-family="Helvetica,sans-Serif" font-size="14.00">gini = 0.466</text>
<text text-anchor="middle" x="131" y="-22.8" font-family="Helvetica,sans-Serif" font-size="14.00">samples = 4401</text>
<text text-anchor="middle" x="131" y="-7.8" font-family="Helvetica,sans-Serif" font-size="14.00">value = [2775, 1626]</text>
</g>
<!-- 4&#45;&gt;5 -->
<g id="edge5" class="edge">
<title>4&#45;&gt;5</title>
<path fill="none" stroke="black" d="M179.56,-88.68C172.73,-80.09 165.37,-70.81 158.5,-62.15"/>
<polygon fill="black" stroke="black" points="161.45,-60.24 152.49,-54.58 155.97,-64.59 161.45,-60.24"/>
</g>
<!-- 6 -->
<g id="node7" class="node">
<title>6</title>
<polygon fill="#fdf5ef" stroke="black" points="343,-53 219,-53 219,0 343,0 343,-53"/>
<text text-anchor="middle" x="281" y="-37.8" font-family="Helvetica,sans-Serif" font-size="14.00">gini = 0.499</text>
<text text-anchor="middle" x="281" y="-22.8" font-family="Helvetica,sans-Serif" font-size="14.00">samples = 232</text>
<text text-anchor="middle" x="281" y="-7.8" font-family="Helvetica,sans-Serif" font-size="14.00">value = [121, 111]</text>
</g>
<!-- 4&#45;&gt;6 -->
<g id="edge6" class="edge">
<title>4&#45;&gt;6</title>
<path fill="none" stroke="black" d="M232.44,-88.68C239.27,-80.09 246.63,-70.81 253.5,-62.15"/>
<polygon fill="black" stroke="black" points="256.03,-64.59 259.51,-54.58 250.55,-60.24 256.03,-64.59"/>
</g>
<!-- 9 -->
<g id="node10" class="node">
<title>9</title>
<polygon fill="#eb9e67" stroke="black" points="413,-253.5 311,-253.5 311,-200.5 413,-200.5 413,-253.5"/>
<text text-anchor="middle" x="362" y="-238.3" font-family="Helvetica,sans-Serif" font-size="14.00">gini = 0.305</text>
<text text-anchor="middle" x="362" y="-223.3" font-family="Helvetica,sans-Serif" font-size="14.00">samples = 32</text>
<text text-anchor="middle" x="362" y="-208.3" font-family="Helvetica,sans-Serif" font-size="14.00">value = [26, 6]</text>
</g>
<!-- 8&#45;&gt;9 -->
<g id="edge9" class="edge">
<title>8&#45;&gt;9</title>
<path fill="none" stroke="black" d="M364.69,-296.6C364.29,-286.47 363.85,-275.28 363.45,-264.93"/>
<polygon fill="black" stroke="black" points="366.96,-265.07 363.07,-255.22 359.96,-265.35 366.96,-265.07"/>
</g>
<!-- 10 -->
<g id="node11" class="node">
<title>10</title>
<polygon fill="#e0f0fb" stroke="black" points="556.5,-261 431.5,-261 431.5,-193 556.5,-193 556.5,-261"/>
<text text-anchor="middle" x="494" y="-245.8" font-family="Helvetica,sans-Serif" font-size="14.00">x[4] &lt;= 0.5</text>
<text text-anchor="middle" x="494" y="-230.8" font-family="Helvetica,sans-Serif" font-size="14.00">gini = 0.496</text>
<text text-anchor="middle" x="494" y="-215.8" font-family="Helvetica,sans-Serif" font-size="14.00">samples = 304</text>
<text text-anchor="middle" x="494" y="-200.8" font-family="Helvetica,sans-Serif" font-size="14.00">value = [139, 165]</text>
</g>
<!-- 8&#45;&gt;10 -->
<g id="edge10" class="edge">
<title>8&#45;&gt;10</title>
<path fill="none" stroke="black" d="M407.91,-296.6C419.18,-287.62 431.5,-277.81 443.2,-268.49"/>
<polygon fill="black" stroke="black" points="445.17,-271.39 450.81,-262.42 440.81,-265.91 445.17,-271.39"/>
</g>
<!-- 11 -->
<g id="node12" class="node">
<title>11</title>
<polygon fill="#c8e4f8" stroke="black" points="483.5,-149.5 358.5,-149.5 358.5,-96.5 483.5,-96.5 483.5,-149.5"/>
<text text-anchor="middle" x="421" y="-134.3" font-family="Helvetica,sans-Serif" font-size="14.00">gini = 0.487</text>
<text text-anchor="middle" x="421" y="-119.3" font-family="Helvetica,sans-Serif" font-size="14.00">samples = 262</text>
<text text-anchor="middle" x="421" y="-104.3" font-family="Helvetica,sans-Serif" font-size="14.00">value = [110, 152]</text>
</g>
<!-- 10&#45;&gt;11 -->
<g id="edge11" class="edge">
<title>10&#45;&gt;11</title>
<path fill="none" stroke="black" d="M470.1,-192.6C462.38,-181.82 453.8,-169.83 446.01,-158.94"/>
<polygon fill="black" stroke="black" points="448.94,-157.03 440.28,-150.94 443.25,-161.11 448.94,-157.03"/>
</g>
<!-- 12 -->
<g id="node13" class="node">
<title>12</title>
<polygon fill="#f1b992" stroke="black" points="612,-149.5 502,-149.5 502,-96.5 612,-96.5 612,-149.5"/>
<text text-anchor="middle" x="557" y="-134.3" font-family="Helvetica,sans-Serif" font-size="14.00">gini = 0.427</text>
<text text-anchor="middle" x="557" y="-119.3" font-family="Helvetica,sans-Serif" font-size="14.00">samples = 42</text>
<text text-anchor="middle" x="557" y="-104.3" font-family="Helvetica,sans-Serif" font-size="14.00">value = [29, 13]</text>
</g>
<!-- 10&#45;&gt;12 -->
<g id="edge12" class="edge">
<title>10&#45;&gt;12</title>
<path fill="none" stroke="black" d="M514.63,-192.6C521.22,-181.93 528.54,-170.08 535.21,-159.27"/>
<polygon fill="black" stroke="black" points="538.05,-161.34 540.33,-150.99 532.09,-157.66 538.05,-161.34"/>
</g>
</g>
</svg>
