<?xml version="1.0" encoding="UTF-8" standalone="no"?>
<!DOCTYPE svg PUBLIC "-//W3C//DTD SVG 1.1//EN"
 "http://www.w3.org/Graphics/SVG/1.1/DTD/svg11.dtd">
<!-- Generated by graphviz version 7.1.0 (20230121.1956)
 -->
<!-- Title: Tree Pages: 1 -->
<svg width="909pt" height="685pt"
 viewBox="0.00 0.00 909.00 685.00" xmlns="http://www.w3.org/2000/svg" xmlns:xlink="http://www.w3.org/1999/xlink">
<g id="graph0" class="graph" transform="scale(1 1) rotate(0) translate(4 681)">
<title>Tree</title>
<polygon fill="white" stroke="none" points="-4,4 -4,-681 905,-681 905,4 -4,4"/>
<!-- 0 -->
<g id="node1" class="node">
<title>0</title>
<polygon fill="#f5ceb2" stroke="black" points="585,-677 445,-677 445,-609 585,-609 585,-677"/>
<text text-anchor="middle" x="515" y="-661.8" font-family="Helvetica,sans-Serif" font-size="14.00">x[25] &lt;= 0.5</text>
<text text-anchor="middle" x="515" y="-646.8" font-family="Helvetica,sans-Serif" font-size="14.00">gini = 0.471</text>
<text text-anchor="middle" x="515" y="-631.8" font-family="Helvetica,sans-Serif" font-size="14.00">samples = 5330</text>
<text text-anchor="middle" x="515" y="-616.8" font-family="Helvetica,sans-Serif" font-size="14.00">value = [3306, 2024]</text>
</g>
<!-- 1 -->
<g id="node2" class="node">
<title>1</title>
<polygon fill="#f4ccae" stroke="black" points="510,-573 370,-573 370,-505 510,-505 510,-573"/>
<text text-anchor="middle" x="440" y="-557.8" font-family="Helvetica,sans-Serif" font-size="14.00">x[27] &lt;= 0.5</text>
<text text-anchor="middle" x="440" y="-542.8" font-family="Helvetica,sans-Serif" font-size="14.00">gini = 0.467</text>
<text text-anchor="middle" x="440" y="-527.8" font-family="Helvetica,sans-Serif" font-size="14.00">samples = 4994</text>
<text text-anchor="middle" x="440" y="-512.8" font-family="Helvetica,sans-Serif" font-size="14.00">value = [3138, 1856]</text>
</g>
<!-- 0&#45;&gt;1 -->
<g id="edge1" class="edge">
<title>0&#45;&gt;1</title>
<path fill="none" stroke="black" d="M490.44,-608.6C484.36,-600.32 477.75,-591.34 471.39,-582.69"/>
<polygon fill="black" stroke="black" points="474.25,-580.68 465.51,-574.69 468.61,-584.82 474.25,-580.68"/>
<text text-anchor="middle" x="460.84" y="-594.49" font-family="Helvetica,sans-Serif" font-size="14.00">True</text>
</g>
<!-- 14 -->
<g id="node15" class="node">
<title>14</title>
<polygon fill="#ffffff" stroke="black" points="653.5,-573 528.5,-573 528.5,-505 653.5,-505 653.5,-573"/>
<text text-anchor="middle" x="591" y="-557.8" font-family="Helvetica,sans-Serif" font-size="14.00">x[1] &lt;= 8300.0</text>
<text text-anchor="middle" x="591" y="-542.8" font-family="Helvetica,sans-Serif" font-size="14.00">gini = 0.5</text>
<text text-anchor="middle" x="591" y="-527.8" font-family="Helvetica,sans-Serif" font-size="14.00">samples = 336</text>
<text text-anchor="middle" x="591" y="-512.8" font-family="Helvetica,sans-Serif" font-size="14.00">value = [168, 168]</text>
</g>
<!-- 0&#45;&gt;14 -->
<g id="edge14" class="edge">
<title>0&#45;&gt;14</title>
<path fill="none" stroke="black" d="M539.89,-608.6C546.05,-600.32 552.75,-591.34 559.19,-582.69"/>
<polygon fill="black" stroke="black" points="561.99,-584.8 565.15,-574.69 556.37,-580.61 561.99,-584.8"/>
<text text-anchor="middle" x="569.67" y="-594.51" font-family="Helvetica,sans-Serif" font-size="14.00">False</text>
</g>
<!-- 2 -->
<g id="node3" class="node">
<title>2</title>
<polygon fill="#f4caab" stroke="black" points="364,-469 224,-469 224,-401 364,-401 364,-469"/>
<text text-anchor="middle" x="294" y="-453.8" font-family="Helvetica,sans-Serif" font-size="14.00">x[26] &lt;= 0.5</text>
<text text-anchor="middle" x="294" y="-438.8" font-family="Helvetica,sans-Serif" font-size="14.00">gini = 0.464</text>
<text text-anchor="middle" x="294" y="-423.8" font-family="Helvetica,sans-Serif" font-size="14.00">samples = 4749</text>
<text text-anchor="middle" x="294" y="-408.8" font-family="Helvetica,sans-Serif" font-size="14.00">value = [3012, 1737]</text>
</g>
<!-- 1&#45;&gt;2 -->
<g id="edge2" class="edge">
<title>1&#45;&gt;2</title>
<path fill="none" stroke="black" d="M392.19,-504.6C379.09,-495.44 364.74,-485.42 351.17,-475.94"/>
<polygon fill="black" stroke="black" points="353.36,-473.2 343.15,-470.34 349.35,-478.94 353.36,-473.2"/>
</g>
<!-- 11 -->
<g id="node12" class="node">
<title>11</title>
<polygon fill="#fef8f4" stroke="black" points="507.5,-469 382.5,-469 382.5,-401 507.5,-401 507.5,-469"/>
<text text-anchor="middle" x="445" y="-453.8" font-family="Helvetica,sans-Serif" font-size="14.00">x[2] &lt;= 0.5</text>
<text text-anchor="middle" x="445" y="-438.8" font-family="Helvetica,sans-Serif" font-size="14.00">gini = 0.5</text>
<text text-anchor="middle" x="445" y="-423.8" font-family="Helvetica,sans-Serif" font-size="14.00">samples = 245</text>
<text text-anchor="middle" x="445" y="-408.8" font-family="Helvetica,sans-Serif" font-size="14.00">value = [126, 119]</text>
</g>
<!-- 1&#45;&gt;11 -->
<g id="edge11" class="edge">
<title>1&#45;&gt;11</title>
<path fill="none" stroke="black" d="M441.64,-504.6C442.01,-497.03 442.41,-488.87 442.8,-480.9"/>
<polygon fill="black" stroke="black" points="446.29,-481.14 443.29,-470.99 439.3,-480.8 446.29,-481.14"/>
</g>
<!-- 3 -->
<g id="node4" class="node">
<title>3</title>
<polygon fill="#f4c8a8" stroke="black" points="216,-365 76,-365 76,-297 216,-297 216,-365"/>
<text text-anchor="middle" x="146" y="-349.8" font-family="Helvetica,sans-Serif" font-size="14.00">x[1] &lt;= 4950.0</text>
<text text-anchor="middle" x="146" y="-334.8" font-family="Helvetica,sans-Serif" font-size="14.00">gini = 0.46</text>
<text text-anchor="middle" x="146" y="-319.8" font-family="Helvetica,sans-Serif" font-size="14.00">samples = 4486</text>
<text text-anchor="middle" x="146" y="-304.8" font-family="Helvetica,sans-Serif" font-size="14.00">value = [2874, 1612]</text>
</g>
<!-- 2&#45;&gt;3 -->
<g id="edge3" class="edge">
<title>2&#45;&gt;3</title>
<path fill="none" stroke="black" d="M245.54,-400.6C232.25,-391.44 217.71,-381.42 203.95,-371.94"/>
<polygon fill="black" stroke="black" points="206.04,-369.13 195.82,-366.33 202.06,-374.89 206.04,-369.13"/>
</g>
<!-- 10 -->
<g id="node11" class="node">
<title>10</title>
<polygon fill="#fdf3ec" stroke="black" points="359.5,-357.5 234.5,-357.5 234.5,-304.5 359.5,-304.5 359.5,-357.5"/>
<text text-anchor="middle" x="297" y="-342.3" font-family="Helvetica,sans-Serif" font-size="14.00">gini = 0.499</text>
<text text-anchor="middle" x="297" y="-327.3" font-family="Helvetica,sans-Serif" font-size="14.00">samples = 263</text>
<text text-anchor="middle" x="297" y="-312.3" font-family="Helvetica,sans-Serif" font-size="14.00">value = [138, 125]</text>
</g>
<!-- 2&#45;&gt;10 -->
<g id="edge10" class="edge">
<title>2&#45;&gt;10</title>
<path fill="none" stroke="black" d="M294.98,-400.6C295.28,-390.47 295.61,-379.28 295.91,-368.93"/>
<polygon fill="black" stroke="black" points="299.4,-369.32 296.2,-359.22 292.41,-369.11 299.4,-369.32"/>
</g>
<!-- 4 -->
<g id="node5" class="node">
<title>4</title>
<polygon fill="#eb9d66" stroke="black" points="130,-253.5 20,-253.5 20,-200.5 130,-200.5 130,-253.5"/>
<text text-anchor="middle" x="75" y="-238.3" font-family="Helvetica,sans-Serif" font-size="14.00">gini = 0.3</text>
<text text-anchor="middle" x="75" y="-223.3" font-family="Helvetica,sans-Serif" font-size="14.00">samples = 87</text>
<text text-anchor="middle" x="75" y="-208.3" font-family="Helvetica,sans-Serif" font-size="14.00">value = [71, 16]</text>
</g>
<!-- 3&#45;&gt;4 -->
<g id="edge4" class="edge">
<title>3&#45;&gt;4</title>
<path fill="none" stroke="black" d="M122.75,-296.6C115.24,-285.82 106.9,-273.83 99.32,-262.94"/>
<polygon fill="black" stroke="black" points="102.34,-261.16 93.76,-254.95 96.6,-265.16 102.34,-261.16"/>
</g>
<!-- 5 -->
<g id="node6" class="node">
<title>5</title>
<polygon fill="#f4c9aa" stroke="black" points="288,-261 148,-261 148,-193 288,-193 288,-261"/>
<text text-anchor="middle" x="218" y="-245.8" font-family="Helvetica,sans-Serif" font-size="14.00">x[28] &lt;= 0.5</text>
<text text-anchor="middle" x="218" y="-230.8" font-family="Helvetica,sans-Serif" font-size="14.00">gini = 0.462</text>
<text text-anchor="middle" x="218" y="-215.8" font-family="Helvetica,sans-Serif" font-size="14.00">samples = 4399</text>
<text text-anchor="middle" x="218" y="-200.8" font-family="Helvetica,sans-Serif" font-size="14.00">value = [2803, 1596]</text>
</g>
<!-- 3&#45;&gt;5 -->
<g id="edge5" class="edge">
<title>3&#45;&gt;5</title>
<path fill="none" stroke="black" d="M169.58,-296.6C175.42,-288.32 181.76,-279.34 187.87,-270.69"/>
<polygon fill="black" stroke="black" points="190.59,-272.9 193.5,-262.71 184.87,-268.86 190.59,-272.9"/>
</g>
<!-- 6 -->
<g id="node7" class="node">
<title>6</title>
<polygon fill="#f3c7a7" stroke="black" points="215,-157 75,-157 75,-89 215,-89 215,-157"/>
<text text-anchor="middle" x="145" y="-141.8" font-family="Helvetica,sans-Serif" font-size="14.00">x[21] &lt;= 0.5</text>
<text text-anchor="middle" x="145" y="-126.8" font-family="Helvetica,sans-Serif" font-size="14.00">gini = 0.46</text>
<text text-anchor="middle" x="145" y="-111.8" font-family="Helvetica,sans-Serif" font-size="14.00">samples = 4191</text>
<text text-anchor="middle" x="145" y="-96.8" font-family="Helvetica,sans-Serif" font-size="14.00">value = [2691, 1500]</text>
</g>
<!-- 5&#45;&gt;6 -->
<g id="edge6" class="edge">
<title>5&#45;&gt;6</title>
<path fill="none" stroke="black" d="M194.1,-192.6C188.17,-184.32 181.74,-175.34 175.55,-166.69"/>
<polygon fill="black" stroke="black" points="178.5,-164.8 169.84,-158.7 172.81,-168.87 178.5,-164.8"/>
</g>
<!-- 9 -->
<g id="node10" class="node">
<title>9</title>
<polygon fill="#fbede3" stroke="black" points="350.5,-149.5 233.5,-149.5 233.5,-96.5 350.5,-96.5 350.5,-149.5"/>
<text text-anchor="middle" x="292" y="-134.3" font-family="Helvetica,sans-Serif" font-size="14.00">gini = 0.497</text>
<text text-anchor="middle" x="292" y="-119.3" font-family="Helvetica,sans-Serif" font-size="14.00">samples = 208</text>
<text text-anchor="middle" x="292" y="-104.3" font-family="Helvetica,sans-Serif" font-size="14.00">value = [112, 96]</text>
</g>
<!-- 5&#45;&gt;9 -->
<g id="edge9" class="edge">
<title>5&#45;&gt;9</title>
<path fill="none" stroke="black" d="M242.23,-192.6C250.05,-181.82 258.75,-169.83 266.65,-158.94"/>
<polygon fill="black" stroke="black" points="269.42,-161.08 272.46,-150.93 263.76,-156.97 269.42,-161.08"/>
</g>
<!-- 7 -->
<g id="node8" class="node">
<title>7</title>
<polygon fill="#f3c5a5" stroke="black" points="140,-53 0,-53 0,0 140,0 140,-53"/>
<text text-anchor="middle" x="70" y="-37.8" font-family="Helvetica,sans-Serif" font-size="14.00">gini = 0.456</text>
<text text-anchor="middle" x="70" y="-22.8" font-family="Helvetica,sans-Serif" font-size="14.00">samples = 3916</text>
<text text-anchor="middle" x="70" y="-7.8" font-family="Helvetica,sans-Serif" font-size="14.00">value = [2538, 1378]</text>
</g>
<!-- 6&#45;&gt;7 -->
<g id="edge7" class="edge">
<title>6&#45;&gt;7</title>
<path fill="none" stroke="black" d="M118.56,-88.68C111.73,-80.09 104.37,-70.81 97.5,-62.15"/>
<polygon fill="black" stroke="black" points="100.45,-60.24 91.49,-54.58 94.97,-64.59 100.45,-60.24"/>
</g>
<!-- 8 -->
<g id="node9" class="node">
<title>8</title>
<polygon fill="#fae5d7" stroke="black" points="283.5,-53 158.5,-53 158.5,0 283.5,0 283.5,-53"/>
<text text-anchor="middle" x="221" y="-37.8" font-family="Helvetica,sans-Serif" font-size="14.00">gini = 0.494</text>
<text text-anchor="middle" x="221" y="-22.8" font-family="Helvetica,sans-Serif" font-size="14.00">samples = 275</text>
<text text-anchor="middle" x="221" y="-7.8" font-family="Helvetica,sans-Serif" font-size="14.00">value = [153, 122]</text>
</g>
<!-- 6&#45;&gt;8 -->
<g id="edge8" class="edge">
<title>6&#45;&gt;8</title>
<path fill="none" stroke="black" d="M171.79,-88.68C178.71,-80.09 186.17,-70.81 193.14,-62.15"/>
<polygon fill="black" stroke="black" points="195.69,-64.56 199.23,-54.57 190.23,-60.17 195.69,-64.56"/>
</g>
<!-- 12 -->
<g id="node13" class="node">
<title>12</title>
<polygon fill="#e8f4fc" stroke="black" points="500,-357.5 384,-357.5 384,-304.5 500,-304.5 500,-357.5"/>
<text text-anchor="middle" x="442" y="-342.3" font-family="Helvetica,sans-Serif" font-size="14.00">gini = 0.498</text>
<text text-anchor="middle" x="442" y="-327.3" font-family="Helvetica,sans-Serif" font-size="14.00">samples = 209</text>
<text text-anchor="middle" x="442" y="-312.3" font-family="Helvetica,sans-Serif" font-size="14.00">value = [98, 111]</text>
</g>
<!-- 11&#45;&gt;12 -->
<g id="edge12" class="edge">
<title>11&#45;&gt;12</title>
<path fill="none" stroke="black" d="M444.02,-400.6C443.72,-390.47 443.39,-379.28 443.09,-368.93"/>
<polygon fill="black" stroke="black" points="446.59,-369.11 442.8,-359.22 439.6,-369.32 446.59,-369.11"/>
</g>
<!-- 13 -->
<g id="node14" class="node">
<title>13</title>
<polygon fill="#eca572" stroke="black" points="620,-357.5 518,-357.5 518,-304.5 620,-304.5 620,-357.5"/>
<text text-anchor="middle" x="569" y="-342.3" font-family="Helvetica,sans-Serif" font-size="14.00">gini = 0.346</text>
<text text-anchor="middle" x="569" y="-327.3" font-family="Helvetica,sans-Serif" font-size="14.00">samples = 36</text>
<text text-anchor="middle" x="569" y="-312.3" font-family="Helvetica,sans-Serif" font-size="14.00">value = [28, 8]</text>
</g>
<!-- 11&#45;&gt;13 -->
<g id="edge13" class="edge">
<title>11&#45;&gt;13</title>
<path fill="none" stroke="black" d="M485.6,-400.6C499.51,-389.16 515.05,-376.38 528.92,-364.97"/>
<polygon fill="black" stroke="black" points="531.08,-367.72 536.58,-358.67 526.63,-362.32 531.08,-367.72"/>
</g>
<!-- 15 -->
<g id="node16" class="node">
<title>15</title>
<polygon fill="#ea9b62" stroke="black" points="637,-461.5 535,-461.5 535,-408.5 637,-408.5 637,-461.5"/>
<text text-anchor="middle" x="586" y="-446.3" font-family="Helvetica,sans-Serif" font-size="14.00">gini = 0.285</text>
<text text-anchor="middle" x="586" y="-431.3" font-family="Helvetica,sans-Serif" font-size="14.00">samples = 29</text>
<text text-anchor="middle" x="586" y="-416.3" font-family="Helvetica,sans-Serif" font-size="14.00">value = [24, 5]</text>
</g>
<!-- 14&#45;&gt;15 -->
<g id="edge15" class="edge">
<title>14&#45;&gt;15</title>
<path fill="none" stroke="black" d="M589.36,-504.6C588.87,-494.47 588.32,-483.28 587.81,-472.93"/>
<polygon fill="black" stroke="black" points="591.32,-473.03 587.33,-463.22 584.33,-473.38 591.32,-473.03"/>
</g>
<!-- 16 -->
<g id="node17" class="node">
<title>16</title>
<polygon fill="#e8f4fc" stroke="black" points="780.5,-469 655.5,-469 655.5,-401 780.5,-401 780.5,-469"/>
<text text-anchor="middle" x="718" y="-453.8" font-family="Helvetica,sans-Serif" font-size="14.00">x[4] &lt;= 0.5</text>
<text text-anchor="middle" x="718" y="-438.8" font-family="Helvetica,sans-Serif" font-size="14.00">gini = 0.498</text>
<text text-anchor="middle" x="718" y="-423.8" font-family="Helvetica,sans-Serif" font-size="14.00">samples = 307</text>
<text text-anchor="middle" x="718" y="-408.8" font-family="Helvetica,sans-Serif" font-size="14.00">value = [144, 163]</text>
</g>
<!-- 14&#45;&gt;16 -->
<g id="edge16" class="edge">
<title>14&#45;&gt;16</title>
<path fill="none" stroke="black" d="M632.58,-504.6C643.77,-495.62 655.99,-485.81 667.59,-476.49"/>
<polygon fill="black" stroke="black" points="669.54,-479.41 675.14,-470.42 665.15,-473.95 669.54,-479.41"/>
</g>
<!-- 17 -->
<g id="node18" class="node">
<title>17</title>
<polygon fill="#cde6f8" stroke="black" points="772.5,-357.5 647.5,-357.5 647.5,-304.5 772.5,-304.5 772.5,-357.5"/>
<text text-anchor="middle" x="710" y="-342.3" font-family="Helvetica,sans-Serif" font-size="14.00">gini = 0.49</text>
<text text-anchor="middle" x="710" y="-327.3" font-family="Helvetica,sans-Serif" font-size="14.00">samples = 264</text>
<text text-anchor="middle" x="710" y="-312.3" font-family="Helvetica,sans-Serif" font-size="14.00">value = [113, 151]</text>
</g>
<!-- 16&#45;&gt;17 -->
<g id="edge17" class="edge">
<title>16&#45;&gt;17</title>
<path fill="none" stroke="black" d="M715.38,-400.6C714.59,-390.47 713.71,-379.28 712.9,-368.93"/>
<polygon fill="black" stroke="black" points="716.41,-368.91 712.13,-359.21 709.43,-369.46 716.41,-368.91"/>
</g>
<!-- 18 -->
<g id="node19" class="node">
<title>18</title>
<polygon fill="#efb286" stroke="black" points="901,-357.5 791,-357.5 791,-304.5 901,-304.5 901,-357.5"/>
<text text-anchor="middle" x="846" y="-342.3" font-family="Helvetica,sans-Serif" font-size="14.00">gini = 0.402</text>
<text text-anchor="middle" x="846" y="-327.3" font-family="Helvetica,sans-Serif" font-size="14.00">samples = 43</text>
<text text-anchor="middle" x="846" y="-312.3" font-family="Helvetica,sans-Serif" font-size="14.00">value = [31, 12]</text>
</g>
<!-- 16&#45;&gt;18 -->
<g id="edge18" class="edge">
<title>16&#45;&gt;18</title>
<path fill="none" stroke="black" d="M759.91,-400.6C774.4,-389.05 790.62,-376.13 805.03,-364.65"/>
<polygon fill="black" stroke="black" points="806.92,-367.62 812.56,-358.65 802.56,-362.14 806.92,-367.62"/>
</g>
</g>
</svg>
