<?xml version="1.0" encoding="UTF-8" standalone="no"?>
<!DOCTYPE svg PUBLIC "-//W3C//DTD SVG 1.1//EN"
 "http://www.w3.org/Graphics/SVG/1.1/DTD/svg11.dtd">
<!-- Generated by graphviz version 7.1.0 (20230121.1956)
 -->
<!-- Title: Tree Pages: 1 -->
<svg width="625pt" height="477pt"
 viewBox="0.00 0.00 625.00 477.00" xmlns="http://www.w3.org/2000/svg" xmlns:xlink="http://www.w3.org/1999/xlink">
<g id="graph0" class="graph" transform="scale(1 1) rotate(0) translate(4 473)">
<title>Tree</title>
<polygon fill="white" stroke="none" points="-4,4 -4,-473 621,-473 621,4 -4,4"/>
<!-- 0 -->
<g id="node1" class="node">
<title>0</title>
<polygon fill="#f5cfb4" stroke="black" points="409,-469 269,-469 269,-401 409,-401 409,-469"/>
<text text-anchor="middle" x="339" y="-453.8" font-family="Helvetica,sans-Serif" font-size="14.00">x[25] &lt;= 0.5</text>
<text text-anchor="middle" x="339" y="-438.8" font-family="Helvetica,sans-Serif" font-size="14.00">gini = 0.473</text>
<text text-anchor="middle" x="339" y="-423.8" font-family="Helvetica,sans-Serif" font-size="14.00">samples = 5330</text>
<text text-anchor="middle" x="339" y="-408.8" font-family="Helvetica,sans-Serif" font-size="14.00">value = [3285, 2045]</text>
</g>
<!-- 1 -->
<g id="node2" class="node">
<title>1</title>
<polygon fill="#f5cdb0" stroke="black" points="334,-365 194,-365 194,-297 334,-297 334,-365"/>
<text text-anchor="middle" x="264" y="-349.8" font-family="Helvetica,sans-Serif" font-size="14.00">x[26] &lt;= 0.5</text>
<text text-anchor="middle" x="264" y="-334.8" font-family="Helvetica,sans-Serif" font-size="14.00">gini = 0.469</text>
<text text-anchor="middle" x="264" y="-319.8" font-family="Helvetica,sans-Serif" font-size="14.00">samples = 4991</text>
<text text-anchor="middle" x="264" y="-304.8" font-family="Helvetica,sans-Serif" font-size="14.00">value = [3116, 1875]</text>
</g>
<!-- 0&#45;&gt;1 -->
<g id="edge1" class="edge">
<title>0&#45;&gt;1</title>
<path fill="none" stroke="black" d="M314.44,-400.6C308.36,-392.32 301.75,-383.34 295.39,-374.69"/>
<polygon fill="black" stroke="black" points="298.25,-372.68 289.51,-366.69 292.61,-376.82 298.25,-372.68"/>
<text text-anchor="middle" x="284.84" y="-386.49" font-family="Helvetica,sans-Serif" font-size="14.00">True</text>
</g>
<!-- 8 -->
<g id="node9" class="node">
<title>8</title>
<polygon fill="#fefeff" stroke="black" points="477.5,-365 352.5,-365 352.5,-297 477.5,-297 477.5,-365"/>
<text text-anchor="middle" x="415" y="-349.8" font-family="Helvetica,sans-Serif" font-size="14.00">x[4] &lt;= 0.5</text>
<text text-anchor="middle" x="415" y="-334.8" font-family="Helvetica,sans-Serif" font-size="14.00">gini = 0.5</text>
<text text-anchor="middle" x="415" y="-319.8" font-family="Helvetica,sans-Serif" font-size="14.00">samples = 339</text>
<text text-anchor="middle" x="415" y="-304.8" font-family="Helvetica,sans-Serif" font-size="14.00">value = [169, 170]</text>
</g>
<!-- 0&#45;&gt;8 -->
<g id="edge8" class="edge">
<title>0&#45;&gt;8</title>
<path fill="none" stroke="black" d="M363.89,-400.6C370.05,-392.32 376.75,-383.34 383.19,-374.69"/>
<polygon fill="black" stroke="black" points="385.99,-376.8 389.15,-366.69 380.37,-372.61 385.99,-376.8"/>
<text text-anchor="middle" x="393.67" y="-386.51" font-family="Helvetica,sans-Serif" font-size="14.00">False</text>
</g>
<!-- 2 -->
<g id="node3" class="node">
<title>2</title>
<polygon fill="#f4caac" stroke="black" points="185,-261 45,-261 45,-193 185,-193 185,-261"/>
<text text-anchor="middle" x="115" y="-245.8" font-family="Helvetica,sans-Serif" font-size="14.00">x[1] &lt;= 5716.5</text>
<text text-anchor="middle" x="115" y="-230.8" font-family="Helvetica,sans-Serif" font-size="14.00">gini = 0.465</text>
<text text-anchor="middle" x="115" y="-215.8" font-family="Helvetica,sans-Serif" font-size="14.00">samples = 4724</text>
<text text-anchor="middle" x="115" y="-200.8" font-family="Helvetica,sans-Serif" font-size="14.00">value = [2987, 1737]</text>
</g>
<!-- 1&#45;&gt;2 -->
<g id="edge2" class="edge">
<title>1&#45;&gt;2</title>
<path fill="none" stroke="black" d="M215.21,-296.6C201.83,-287.44 187.2,-277.42 173.34,-267.94"/>
<polygon fill="black" stroke="black" points="175.38,-265.09 165.15,-262.33 171.42,-270.87 175.38,-265.09"/>
</g>
<!-- 7 -->
<g id="node8" class="node">
<title>7</title>
<polygon fill="#f2f9fd" stroke="black" points="328.5,-253.5 203.5,-253.5 203.5,-200.5 328.5,-200.5 328.5,-253.5"/>
<text text-anchor="middle" x="266" y="-238.3" font-family="Helvetica,sans-Serif" font-size="14.00">gini = 0.499</text>
<text text-anchor="middle" x="266" y="-223.3" font-family="Helvetica,sans-Serif" font-size="14.00">samples = 267</text>
<text text-anchor="middle" x="266" y="-208.3" font-family="Helvetica,sans-Serif" font-size="14.00">value = [129, 138]</text>
</g>
<!-- 1&#45;&gt;7 -->
<g id="edge7" class="edge">
<title>1&#45;&gt;7</title>
<path fill="none" stroke="black" d="M264.65,-296.6C264.85,-286.47 265.07,-275.28 265.28,-264.93"/>
<polygon fill="black" stroke="black" points="268.77,-265.29 265.47,-255.22 261.77,-265.15 268.77,-265.29"/>
</g>
<!-- 3 -->
<g id="node4" class="node">
<title>3</title>
<polygon fill="#eca470" stroke="black" points="110,-149.5 0,-149.5 0,-96.5 110,-96.5 110,-149.5"/>
<text text-anchor="middle" x="55" y="-134.3" font-family="Helvetica,sans-Serif" font-size="14.00">gini = 0.341</text>
<text text-anchor="middle" x="55" y="-119.3" font-family="Helvetica,sans-Serif" font-size="14.00">samples = 124</text>
<text text-anchor="middle" x="55" y="-104.3" font-family="Helvetica,sans-Serif" font-size="14.00">value = [97, 27]</text>
</g>
<!-- 2&#45;&gt;3 -->
<g id="edge3" class="edge">
<title>2&#45;&gt;3</title>
<path fill="none" stroke="black" d="M95.35,-192.6C89.14,-182.03 82.25,-170.32 75.94,-159.6"/>
<polygon fill="black" stroke="black" points="78.98,-157.86 70.89,-151.01 72.94,-161.4 78.98,-157.86"/>
</g>
<!-- 4 -->
<g id="node5" class="node">
<title>4</title>
<polygon fill="#f4ccae" stroke="black" points="268,-157 128,-157 128,-89 268,-89 268,-157"/>
<text text-anchor="middle" x="198" y="-141.8" font-family="Helvetica,sans-Serif" font-size="14.00">x[24] &lt;= 0.5</text>
<text text-anchor="middle" x="198" y="-126.8" font-family="Helvetica,sans-Serif" font-size="14.00">gini = 0.467</text>
<text text-anchor="middle" x="198" y="-111.8" font-family="Helvetica,sans-Serif" font-size="14.00">samples = 4600</text>
<text text-anchor="middle" x="198" y="-96.8" font-family="Helvetica,sans-Serif" font-size="14.00">value = [2890, 1710]</text>
</g>
<!-- 2&#45;&gt;4 -->
<g id="edge4" class="edge">
<title>2&#45;&gt;4</title>
<path fill="none" stroke="black" d="M142.18,-192.6C149.06,-184.15 156.53,-174.96 163.71,-166.13"/>
<polygon fill="black" stroke="black" points="166.21,-168.61 169.81,-158.65 160.78,-164.2 166.21,-168.61"/>
</g>
<!-- 5 -->
<g id="node6" class="node">
<title>5</title>
<polygon fill="#f4caab" stroke="black" points="210,-53 70,-53 70,0 210,0 210,-53"/>
<text text-anchor="middle" x="140" y="-37.8" font-family="Helvetica,sans-Serif" font-size="14.00">gini = 0.464</text>
<text text-anchor="middle" x="140" y="-22.8" font-family="Helvetica,sans-Serif" font-size="14.00">samples = 4279</text>
<text text-anchor="middle" x="140" y="-7.8" font-family="Helvetica,sans-Serif" font-size="14.00">value = [2714, 1565]</text>
</g>
<!-- 4&#45;&gt;5 -->
<g id="edge5" class="edge">
<title>4&#45;&gt;5</title>
<path fill="none" stroke="black" d="M177.55,-88.68C172.44,-80.36 166.94,-71.4 161.77,-62.97"/>
<polygon fill="black" stroke="black" points="164.9,-61.38 156.68,-54.68 158.93,-65.04 164.9,-61.38"/>
</g>
<!-- 6 -->
<g id="node7" class="node">
<title>6</title>
<polygon fill="#fae9dc" stroke="black" points="353.5,-53 228.5,-53 228.5,0 353.5,0 353.5,-53"/>
<text text-anchor="middle" x="291" y="-37.8" font-family="Helvetica,sans-Serif" font-size="14.00">gini = 0.495</text>
<text text-anchor="middle" x="291" y="-22.8" font-family="Helvetica,sans-Serif" font-size="14.00">samples = 321</text>
<text text-anchor="middle" x="291" y="-7.8" font-family="Helvetica,sans-Serif" font-size="14.00">value = [176, 145]</text>
</g>
<!-- 4&#45;&gt;6 -->
<g id="edge6" class="edge">
<title>4&#45;&gt;6</title>
<path fill="none" stroke="black" d="M230.79,-88.68C239.52,-79.81 248.95,-70.23 257.71,-61.33"/>
<polygon fill="black" stroke="black" points="259.94,-64.06 264.46,-54.47 254.95,-59.14 259.94,-64.06"/>
</g>
<!-- 9 -->
<g id="node10" class="node">
<title>9</title>
<polygon fill="#e3f1fb" stroke="black" points="475.5,-261 350.5,-261 350.5,-193 475.5,-193 475.5,-261"/>
<text text-anchor="middle" x="413" y="-245.8" font-family="Helvetica,sans-Serif" font-size="14.00">x[1] &lt;= 8382.0</text>
<text text-anchor="middle" x="413" y="-230.8" font-family="Helvetica,sans-Serif" font-size="14.00">gini = 0.497</text>
<text text-anchor="middle" x="413" y="-215.8" font-family="Helvetica,sans-Serif" font-size="14.00">samples = 297</text>
<text text-anchor="middle" x="413" y="-200.8" font-family="Helvetica,sans-Serif" font-size="14.00">value = [137, 160]</text>
</g>
<!-- 8&#45;&gt;9 -->
<g id="edge9" class="edge">
<title>8&#45;&gt;9</title>
<path fill="none" stroke="black" d="M414.35,-296.6C414.2,-289.03 414.04,-280.87 413.88,-272.9"/>
<polygon fill="black" stroke="black" points="417.38,-272.92 413.69,-262.99 410.38,-273.05 417.38,-272.92"/>
</g>
<!-- 14 -->
<g id="node15" class="node">
<title>14</title>
<polygon fill="#eda877" stroke="black" points="604,-253.5 494,-253.5 494,-200.5 604,-200.5 604,-253.5"/>
<text text-anchor="middle" x="549" y="-238.3" font-family="Helvetica,sans-Serif" font-size="14.00">gini = 0.363</text>
<text text-anchor="middle" x="549" y="-223.3" font-family="Helvetica,sans-Serif" font-size="14.00">samples = 42</text>
<text text-anchor="middle" x="549" y="-208.3" font-family="Helvetica,sans-Serif" font-size="14.00">value = [32, 10]</text>
</g>
<!-- 8&#45;&gt;14 -->
<g id="edge14" class="edge">
<title>8&#45;&gt;14</title>
<path fill="none" stroke="black" d="M458.88,-296.6C474.05,-285.05 491.02,-272.13 506.11,-260.65"/>
<polygon fill="black" stroke="black" points="508.19,-263.46 514.03,-254.62 503.95,-257.89 508.19,-263.46"/>
</g>
<!-- 10 -->
<g id="node11" class="node">
<title>10</title>
<polygon fill="#eda673" stroke="black" points="424,-149.5 322,-149.5 322,-96.5 424,-96.5 424,-149.5"/>
<text text-anchor="middle" x="373" y="-134.3" font-family="Helvetica,sans-Serif" font-size="14.00">gini = 0.35</text>
<text text-anchor="middle" x="373" y="-119.3" font-family="Helvetica,sans-Serif" font-size="14.00">samples = 31</text>
<text text-anchor="middle" x="373" y="-104.3" font-family="Helvetica,sans-Serif" font-size="14.00">value = [24, 7]</text>
</g>
<!-- 9&#45;&gt;10 -->
<g id="edge10" class="edge">
<title>9&#45;&gt;10</title>
<path fill="none" stroke="black" d="M399.9,-192.6C395.84,-182.25 391.35,-170.8 387.22,-160.27"/>
<polygon fill="black" stroke="black" points="390.54,-159.15 383.63,-151.12 384.03,-161.7 390.54,-159.15"/>
</g>
<!-- 11 -->
<g id="node12" class="node">
<title>11</title>
<polygon fill="#cbe5f8" stroke="black" points="567.5,-157 442.5,-157 442.5,-89 567.5,-89 567.5,-157"/>
<text text-anchor="middle" x="505" y="-141.8" font-family="Helvetica,sans-Serif" font-size="14.00">x[1] &lt;= 31312.5</text>
<text text-anchor="middle" x="505" y="-126.8" font-family="Helvetica,sans-Serif" font-size="14.00">gini = 0.489</text>
<text text-anchor="middle" x="505" y="-111.8" font-family="Helvetica,sans-Serif" font-size="14.00">samples = 266</text>
<text text-anchor="middle" x="505" y="-96.8" font-family="Helvetica,sans-Serif" font-size="14.00">value = [113, 153]</text>
</g>
<!-- 9&#45;&gt;11 -->
<g id="edge11" class="edge">
<title>9&#45;&gt;11</title>
<path fill="none" stroke="black" d="M443.12,-192.6C450.83,-184.06 459.21,-174.77 467.24,-165.86"/>
<polygon fill="black" stroke="black" points="469.7,-168.37 473.79,-158.6 464.5,-163.68 469.7,-168.37"/>
</g>
<!-- 12 -->
<g id="node13" class="node">
<title>12</title>
<polygon fill="#b7dcf6" stroke="black" points="488.5,-53 371.5,-53 371.5,0 488.5,0 488.5,-53"/>
<text text-anchor="middle" x="430" y="-37.8" font-family="Helvetica,sans-Serif" font-size="14.00">gini = 0.476</text>
<text text-anchor="middle" x="430" y="-22.8" font-family="Helvetica,sans-Serif" font-size="14.00">samples = 231</text>
<text text-anchor="middle" x="430" y="-7.8" font-family="Helvetica,sans-Serif" font-size="14.00">value = [90, 141]</text>
</g>
<!-- 11&#45;&gt;12 -->
<g id="edge12" class="edge">
<title>11&#45;&gt;12</title>
<path fill="none" stroke="black" d="M478.56,-88.68C471.73,-80.09 464.37,-70.81 457.5,-62.15"/>
<polygon fill="black" stroke="black" points="460.45,-60.24 451.49,-54.58 454.97,-64.59 460.45,-60.24"/>
</g>
<!-- 13 -->
<g id="node14" class="node">
<title>13</title>
<polygon fill="#f3c3a0" stroke="black" points="617,-53 507,-53 507,0 617,0 617,-53"/>
<text text-anchor="middle" x="562" y="-37.8" font-family="Helvetica,sans-Serif" font-size="14.00">gini = 0.451</text>
<text text-anchor="middle" x="562" y="-22.8" font-family="Helvetica,sans-Serif" font-size="14.00">samples = 35</text>
<text text-anchor="middle" x="562" y="-7.8" font-family="Helvetica,sans-Serif" font-size="14.00">value = [23, 12]</text>
</g>
<!-- 11&#45;&gt;13 -->
<g id="edge13" class="edge">
<title>11&#45;&gt;13</title>
<path fill="none" stroke="black" d="M525.1,-88.68C530.06,-80.45 535.41,-71.59 540.44,-63.25"/>
<polygon fill="black" stroke="black" points="543.43,-65.06 545.6,-54.69 537.44,-61.45 543.43,-65.06"/>
</g>
</g>
</svg>
