<?xml version="1.0" encoding="UTF-8" standalone="no"?>
<!DOCTYPE svg PUBLIC "-//W3C//DTD SVG 1.1//EN"
 "http://www.w3.org/Graphics/SVG/1.1/DTD/svg11.dtd">
<!-- Generated by graphviz version 7.1.0 (20230121.1956)
 -->
<!-- Title: Tree Pages: 1 -->
<svg width="640pt" height="477pt"
 viewBox="0.00 0.00 639.50 477.00" xmlns="http://www.w3.org/2000/svg" xmlns:xlink="http://www.w3.org/1999/xlink">
<g id="graph0" class="graph" transform="scale(1 1) rotate(0) translate(4 473)">
<title>Tree</title>
<polygon fill="white" stroke="none" points="-4,4 -4,-473 635.5,-473 635.5,4 -4,4"/>
<!-- 0 -->
<g id="node1" class="node">
<title>0</title>
<polygon fill="#f5d0b6" stroke="black" points="436,-469 296,-469 296,-401 436,-401 436,-469"/>
<text text-anchor="middle" x="366" y="-453.8" font-family="Helvetica,sans-Serif" font-size="14.00">x[25] &lt;= 0.5</text>
<text text-anchor="middle" x="366" y="-438.8" font-family="Helvetica,sans-Serif" font-size="14.00">gini = 0.474</text>
<text text-anchor="middle" x="366" y="-423.8" font-family="Helvetica,sans-Serif" font-size="14.00">samples = 5330</text>
<text text-anchor="middle" x="366" y="-408.8" font-family="Helvetica,sans-Serif" font-size="14.00">value = [3271, 2059]</text>
</g>
<!-- 1 -->
<g id="node2" class="node">
<title>1</title>
<polygon fill="#f5cdb1" stroke="black" points="361,-365 221,-365 221,-297 361,-297 361,-365"/>
<text text-anchor="middle" x="291" y="-349.8" font-family="Helvetica,sans-Serif" font-size="14.00">x[26] &lt;= 0.5</text>
<text text-anchor="middle" x="291" y="-334.8" font-family="Helvetica,sans-Serif" font-size="14.00">gini = 0.47</text>
<text text-anchor="middle" x="291" y="-319.8" font-family="Helvetica,sans-Serif" font-size="14.00">samples = 4983</text>
<text text-anchor="middle" x="291" y="-304.8" font-family="Helvetica,sans-Serif" font-size="14.00">value = [3106, 1877]</text>
</g>
<!-- 0&#45;&gt;1 -->
<g id="edge1" class="edge">
<title>0&#45;&gt;1</title>
<path fill="none" stroke="black" d="M341.44,-400.6C335.36,-392.32 328.75,-383.34 322.39,-374.69"/>
<polygon fill="black" stroke="black" points="325.25,-372.68 316.51,-366.69 319.61,-376.82 325.25,-372.68"/>
<text text-anchor="middle" x="311.84" y="-386.49" font-family="Helvetica,sans-Serif" font-size="14.00">True</text>
</g>
<!-- 8 -->
<g id="node9" class="node">
<title>8</title>
<polygon fill="#edf6fd" stroke="black" points="504.5,-365 379.5,-365 379.5,-297 504.5,-297 504.5,-365"/>
<text text-anchor="middle" x="442" y="-349.8" font-family="Helvetica,sans-Serif" font-size="14.00">x[1] &lt;= 8300.0</text>
<text text-anchor="middle" x="442" y="-334.8" font-family="Helvetica,sans-Serif" font-size="14.00">gini = 0.499</text>
<text text-anchor="middle" x="442" y="-319.8" font-family="Helvetica,sans-Serif" font-size="14.00">samples = 347</text>
<text text-anchor="middle" x="442" y="-304.8" font-family="Helvetica,sans-Serif" font-size="14.00">value = [165, 182]</text>
</g>
<!-- 0&#45;&gt;8 -->
<g id="edge8" class="edge">
<title>0&#45;&gt;8</title>
<path fill="none" stroke="black" d="M390.89,-400.6C397.05,-392.32 403.75,-383.34 410.19,-374.69"/>
<polygon fill="black" stroke="black" points="412.99,-376.8 416.15,-366.69 407.37,-372.61 412.99,-376.8"/>
<text text-anchor="middle" x="420.67" y="-386.51" font-family="Helvetica,sans-Serif" font-size="14.00">False</text>
</g>
<!-- 2 -->
<g id="node3" class="node">
<title>2</title>
<polygon fill="#f4cbad" stroke="black" points="215,-261 75,-261 75,-193 215,-193 215,-261"/>
<text text-anchor="middle" x="145" y="-245.8" font-family="Helvetica,sans-Serif" font-size="14.00">x[27] &lt;= 0.5</text>
<text text-anchor="middle" x="145" y="-230.8" font-family="Helvetica,sans-Serif" font-size="14.00">gini = 0.466</text>
<text text-anchor="middle" x="145" y="-215.8" font-family="Helvetica,sans-Serif" font-size="14.00">samples = 4731</text>
<text text-anchor="middle" x="145" y="-200.8" font-family="Helvetica,sans-Serif" font-size="14.00">value = [2980, 1751]</text>
</g>
<!-- 1&#45;&gt;2 -->
<g id="edge2" class="edge">
<title>1&#45;&gt;2</title>
<path fill="none" stroke="black" d="M243.19,-296.6C230.09,-287.44 215.74,-277.42 202.17,-267.94"/>
<polygon fill="black" stroke="black" points="204.36,-265.2 194.15,-262.34 200.35,-270.94 204.36,-265.2"/>
</g>
<!-- 7 -->
<g id="node8" class="node">
<title>7</title>
<polygon fill="#ffffff" stroke="black" points="358.5,-253.5 233.5,-253.5 233.5,-200.5 358.5,-200.5 358.5,-253.5"/>
<text text-anchor="middle" x="296" y="-238.3" font-family="Helvetica,sans-Serif" font-size="14.00">gini = 0.5</text>
<text text-anchor="middle" x="296" y="-223.3" font-family="Helvetica,sans-Serif" font-size="14.00">samples = 252</text>
<text text-anchor="middle" x="296" y="-208.3" font-family="Helvetica,sans-Serif" font-size="14.00">value = [126, 126]</text>
</g>
<!-- 1&#45;&gt;7 -->
<g id="edge7" class="edge">
<title>1&#45;&gt;7</title>
<path fill="none" stroke="black" d="M292.64,-296.6C293.13,-286.47 293.68,-275.28 294.19,-264.93"/>
<polygon fill="black" stroke="black" points="297.67,-265.38 294.67,-255.22 290.68,-265.03 297.67,-265.38"/>
</g>
<!-- 3 -->
<g id="node4" class="node">
<title>3</title>
<polygon fill="#f4c9aa" stroke="black" points="140,-149.5 0,-149.5 0,-96.5 140,-96.5 140,-149.5"/>
<text text-anchor="middle" x="70" y="-134.3" font-family="Helvetica,sans-Serif" font-size="14.00">gini = 0.463</text>
<text text-anchor="middle" x="70" y="-119.3" font-family="Helvetica,sans-Serif" font-size="14.00">samples = 4488</text>
<text text-anchor="middle" x="70" y="-104.3" font-family="Helvetica,sans-Serif" font-size="14.00">value = [2854, 1634]</text>
</g>
<!-- 2&#45;&gt;3 -->
<g id="edge3" class="edge">
<title>2&#45;&gt;3</title>
<path fill="none" stroke="black" d="M120.44,-192.6C112.51,-181.82 103.7,-169.83 95.69,-158.94"/>
<polygon fill="black" stroke="black" points="98.54,-156.91 89.8,-150.93 92.9,-161.06 98.54,-156.91"/>
</g>
<!-- 4 -->
<g id="node5" class="node">
<title>4</title>
<polygon fill="#fdf6f1" stroke="black" points="283.5,-157 158.5,-157 158.5,-89 283.5,-89 283.5,-157"/>
<text text-anchor="middle" x="221" y="-141.8" font-family="Helvetica,sans-Serif" font-size="14.00">x[2] &lt;= 0.5</text>
<text text-anchor="middle" x="221" y="-126.8" font-family="Helvetica,sans-Serif" font-size="14.00">gini = 0.499</text>
<text text-anchor="middle" x="221" y="-111.8" font-family="Helvetica,sans-Serif" font-size="14.00">samples = 243</text>
<text text-anchor="middle" x="221" y="-96.8" font-family="Helvetica,sans-Serif" font-size="14.00">value = [126, 117]</text>
</g>
<!-- 2&#45;&gt;4 -->
<g id="edge4" class="edge">
<title>2&#45;&gt;4</title>
<path fill="none" stroke="black" d="M169.89,-192.6C176.05,-184.32 182.75,-175.34 189.19,-166.69"/>
<polygon fill="black" stroke="black" points="191.99,-168.8 195.15,-158.69 186.37,-164.61 191.99,-168.8"/>
</g>
<!-- 5 -->
<g id="node6" class="node">
<title>5</title>
<polygon fill="#edf6fd" stroke="black" points="218,-53 94,-53 94,0 218,0 218,-53"/>
<text text-anchor="middle" x="156" y="-37.8" font-family="Helvetica,sans-Serif" font-size="14.00">gini = 0.499</text>
<text text-anchor="middle" x="156" y="-22.8" font-family="Helvetica,sans-Serif" font-size="14.00">samples = 212</text>
<text text-anchor="middle" x="156" y="-7.8" font-family="Helvetica,sans-Serif" font-size="14.00">value = [101, 111]</text>
</g>
<!-- 4&#45;&gt;5 -->
<g id="edge5" class="edge">
<title>4&#45;&gt;5</title>
<path fill="none" stroke="black" d="M198.08,-88.68C192.29,-80.27 186.06,-71.2 180.21,-62.7"/>
<polygon fill="black" stroke="black" points="183.22,-60.9 174.67,-54.64 177.45,-64.86 183.22,-60.9"/>
</g>
<!-- 6 -->
<g id="node7" class="node">
<title>6</title>
<polygon fill="#eb9f69" stroke="black" points="338,-53 236,-53 236,0 338,0 338,-53"/>
<text text-anchor="middle" x="287" y="-37.8" font-family="Helvetica,sans-Serif" font-size="14.00">gini = 0.312</text>
<text text-anchor="middle" x="287" y="-22.8" font-family="Helvetica,sans-Serif" font-size="14.00">samples = 31</text>
<text text-anchor="middle" x="287" y="-7.8" font-family="Helvetica,sans-Serif" font-size="14.00">value = [25, 6]</text>
</g>
<!-- 4&#45;&gt;6 -->
<g id="edge6" class="edge">
<title>4&#45;&gt;6</title>
<path fill="none" stroke="black" d="M244.27,-88.68C250.15,-80.27 256.48,-71.2 262.42,-62.7"/>
<polygon fill="black" stroke="black" points="265.19,-64.84 268.05,-54.63 259.45,-60.83 265.19,-64.84"/>
</g>
<!-- 9 -->
<g id="node10" class="node">
<title>9</title>
<polygon fill="#eca26d" stroke="black" points="488,-253.5 386,-253.5 386,-200.5 488,-200.5 488,-253.5"/>
<text text-anchor="middle" x="437" y="-238.3" font-family="Helvetica,sans-Serif" font-size="14.00">gini = 0.328</text>
<text text-anchor="middle" x="437" y="-223.3" font-family="Helvetica,sans-Serif" font-size="14.00">samples = 29</text>
<text text-anchor="middle" x="437" y="-208.3" font-family="Helvetica,sans-Serif" font-size="14.00">value = [23, 6]</text>
</g>
<!-- 8&#45;&gt;9 -->
<g id="edge9" class="edge">
<title>8&#45;&gt;9</title>
<path fill="none" stroke="black" d="M440.36,-296.6C439.87,-286.47 439.32,-275.28 438.81,-264.93"/>
<polygon fill="black" stroke="black" points="442.32,-265.03 438.33,-255.22 435.33,-265.38 442.32,-265.03"/>
</g>
<!-- 10 -->
<g id="node11" class="node">
<title>10</title>
<polygon fill="#d9ecfa" stroke="black" points="631.5,-253.5 506.5,-253.5 506.5,-200.5 631.5,-200.5 631.5,-253.5"/>
<text text-anchor="middle" x="569" y="-238.3" font-family="Helvetica,sans-Serif" font-size="14.00">gini = 0.494</text>
<text text-anchor="middle" x="569" y="-223.3" font-family="Helvetica,sans-Serif" font-size="14.00">samples = 318</text>
<text text-anchor="middle" x="569" y="-208.3" font-family="Helvetica,sans-Serif" font-size="14.00">value = [142, 176]</text>
</g>
<!-- 8&#45;&gt;10 -->
<g id="edge10" class="edge">
<title>8&#45;&gt;10</title>
<path fill="none" stroke="black" d="M483.58,-296.6C497.96,-285.05 514.05,-272.13 528.35,-260.65"/>
<polygon fill="black" stroke="black" points="530.21,-263.64 535.81,-254.65 525.83,-258.19 530.21,-263.64"/>
</g>
</g>
</svg>
