<?xml version="1.0" encoding="UTF-8" standalone="no"?>
<!DOCTYPE svg PUBLIC "-//W3C//DTD SVG 1.1//EN"
 "http://www.w3.org/Graphics/SVG/1.1/DTD/svg11.dtd">
<!-- Generated by graphviz version 7.1.0 (20230121.1956)
 -->
<!-- Title: Tree Pages: 1 -->
<svg width="347pt" height="433pt"
 viewBox="0.00 0.00 347.00 433.00" xmlns="http://www.w3.org/2000/svg" xmlns:xlink="http://www.w3.org/1999/xlink">
<g id="graph0" class="graph" transform="scale(1 1) rotate(0) translate(4 429)">
<title>Tree</title>
<polygon fill="white" stroke="none" points="-4,4 -4,-429 343,-429 343,4 -4,4"/>
<!-- 0 -->
<g id="node1" class="node">
<title>0</title>
<polygon fill="#ffffff" stroke="black" points="218.5,-425 46.5,-425 46.5,-342 218.5,-342 218.5,-425"/>
<text text-anchor="middle" x="132.5" y="-409.8" font-family="Helvetica,sans-Serif" font-size="14.00">is unknown sender &lt;= 0.5</text>
<text text-anchor="middle" x="132.5" y="-394.8" font-family="Helvetica,sans-Serif" font-size="14.00">gini = 0.5</text>
<text text-anchor="middle" x="132.5" y="-379.8" font-family="Helvetica,sans-Serif" font-size="14.00">samples = 10</text>
<text text-anchor="middle" x="132.5" y="-364.8" font-family="Helvetica,sans-Serif" font-size="14.00">value = [5, 5]</text>
<text text-anchor="middle" x="132.5" y="-349.8" font-family="Helvetica,sans-Serif" font-size="14.00">class = normal</text>
</g>
<!-- 1 -->
<g id="node2" class="node">
<title>1</title>
<polygon fill="#e58139" stroke="black" points="105,-298.5 0,-298.5 0,-230.5 105,-230.5 105,-298.5"/>
<text text-anchor="middle" x="52.5" y="-283.3" font-family="Helvetica,sans-Serif" font-size="14.00">gini = 0.0</text>
<text text-anchor="middle" x="52.5" y="-268.3" font-family="Helvetica,sans-Serif" font-size="14.00">samples = 3</text>
<text text-anchor="middle" x="52.5" y="-253.3" font-family="Helvetica,sans-Serif" font-size="14.00">value = [3, 0]</text>
<text text-anchor="middle" x="52.5" y="-238.3" font-family="Helvetica,sans-Serif" font-size="14.00">class = normal</text>
</g>
<!-- 0&#45;&gt;1 -->
<g id="edge1" class="edge">
<title>0&#45;&gt;1</title>
<path fill="none" stroke="black" d="M104.52,-341.58C97.13,-330.77 89.14,-319.09 81.69,-308.19"/>
<polygon fill="black" stroke="black" points="84.7,-306.39 76.17,-300.11 78.92,-310.34 84.7,-306.39"/>
<text text-anchor="middle" x="70.7" y="-319.73" font-family="Helvetica,sans-Serif" font-size="14.00">True</text>
</g>
<!-- 2 -->
<g id="node3" class="node">
<title>2</title>
<polygon fill="#88c4ef" stroke="black" points="302,-306 123,-306 123,-223 302,-223 302,-306"/>
<text text-anchor="middle" x="212.5" y="-290.8" font-family="Helvetica,sans-Serif" font-size="14.00">contain scam words &lt;= 0.5</text>
<text text-anchor="middle" x="212.5" y="-275.8" font-family="Helvetica,sans-Serif" font-size="14.00">gini = 0.408</text>
<text text-anchor="middle" x="212.5" y="-260.8" font-family="Helvetica,sans-Serif" font-size="14.00">samples = 7</text>
<text text-anchor="middle" x="212.5" y="-245.8" font-family="Helvetica,sans-Serif" font-size="14.00">value = [2, 5]</text>
<text text-anchor="middle" x="212.5" y="-230.8" font-family="Helvetica,sans-Serif" font-size="14.00">class = spam</text>
</g>
<!-- 0&#45;&gt;2 -->
<g id="edge2" class="edge">
<title>0&#45;&gt;2</title>
<path fill="none" stroke="black" d="M160.48,-341.58C166.24,-333.16 172.36,-324.2 178.31,-315.5"/>
<polygon fill="black" stroke="black" points="181.06,-317.68 183.82,-307.45 175.28,-313.73 181.06,-317.68"/>
<text text-anchor="middle" x="189.29" y="-327.07" font-family="Helvetica,sans-Serif" font-size="14.00">False</text>
</g>
<!-- 3 -->
<g id="node4" class="node">
<title>3</title>
<polygon fill="#bddef6" stroke="black" points="223.5,-187 45.5,-187 45.5,-104 223.5,-104 223.5,-187"/>
<text text-anchor="middle" x="134.5" y="-171.8" font-family="Helvetica,sans-Serif" font-size="14.00">contain sales words &lt;= 0.5</text>
<text text-anchor="middle" x="134.5" y="-156.8" font-family="Helvetica,sans-Serif" font-size="14.00">gini = 0.48</text>
<text text-anchor="middle" x="134.5" y="-141.8" font-family="Helvetica,sans-Serif" font-size="14.00">samples = 5</text>
<text text-anchor="middle" x="134.5" y="-126.8" font-family="Helvetica,sans-Serif" font-size="14.00">value = [2, 3]</text>
<text text-anchor="middle" x="134.5" y="-111.8" font-family="Helvetica,sans-Serif" font-size="14.00">class = spam</text>
</g>
<!-- 2&#45;&gt;3 -->
<g id="edge3" class="edge">
<title>2&#45;&gt;3</title>
<path fill="none" stroke="black" d="M185.22,-222.58C179.61,-214.16 173.64,-205.2 167.84,-196.5"/>
<polygon fill="black" stroke="black" points="170.93,-194.84 162.47,-188.46 165.11,-198.72 170.93,-194.84"/>
</g>
<!-- 6 -->
<g id="node7" class="node">
<title>6</title>
<polygon fill="#399de5" stroke="black" points="339,-179.5 242,-179.5 242,-111.5 339,-111.5 339,-179.5"/>
<text text-anchor="middle" x="290.5" y="-164.3" font-family="Helvetica,sans-Serif" font-size="14.00">gini = 0.0</text>
<text text-anchor="middle" x="290.5" y="-149.3" font-family="Helvetica,sans-Serif" font-size="14.00">samples = 2</text>
<text text-anchor="middle" x="290.5" y="-134.3" font-family="Helvetica,sans-Serif" font-size="14.00">value = [0, 2]</text>
<text text-anchor="middle" x="290.5" y="-119.3" font-family="Helvetica,sans-Serif" font-size="14.00">class = spam</text>
</g>
<!-- 2&#45;&gt;6 -->
<g id="edge6" class="edge">
<title>2&#45;&gt;6</title>
<path fill="none" stroke="black" d="M239.78,-222.58C246.98,-211.77 254.78,-200.09 262.04,-189.19"/>
<polygon fill="black" stroke="black" points="264.78,-191.38 267.42,-181.12 258.96,-187.5 264.78,-191.38"/>
</g>
<!-- 4 -->
<g id="node5" class="node">
<title>4</title>
<polygon fill="#ffffff" stroke="black" points="128,-68 23,-68 23,0 128,0 128,-68"/>
<text text-anchor="middle" x="75.5" y="-52.8" font-family="Helvetica,sans-Serif" font-size="14.00">gini = 0.5</text>
<text text-anchor="middle" x="75.5" y="-37.8" font-family="Helvetica,sans-Serif" font-size="14.00">samples = 2</text>
<text text-anchor="middle" x="75.5" y="-22.8" font-family="Helvetica,sans-Serif" font-size="14.00">value = [1, 1]</text>
<text text-anchor="middle" x="75.5" y="-7.8" font-family="Helvetica,sans-Serif" font-size="14.00">class = normal</text>
</g>
<!-- 3&#45;&gt;4 -->
<g id="edge4" class="edge">
<title>3&#45;&gt;4</title>
<path fill="none" stroke="black" d="M112.53,-103.73C108.06,-95.43 103.34,-86.67 98.82,-78.28"/>
<polygon fill="black" stroke="black" points="101.98,-76.78 94.16,-69.63 95.82,-80.1 101.98,-76.78"/>
</g>
<!-- 5 -->
<g id="node6" class="node">
<title>5</title>
<polygon fill="#9ccef2" stroke="black" points="243,-68 146,-68 146,0 243,0 243,-68"/>
<text text-anchor="middle" x="194.5" y="-52.8" font-family="Helvetica,sans-Serif" font-size="14.00">gini = 0.444</text>
<text text-anchor="middle" x="194.5" y="-37.8" font-family="Helvetica,sans-Serif" font-size="14.00">samples = 3</text>
<text text-anchor="middle" x="194.5" y="-22.8" font-family="Helvetica,sans-Serif" font-size="14.00">value = [1, 2]</text>
<text text-anchor="middle" x="194.5" y="-7.8" font-family="Helvetica,sans-Serif" font-size="14.00">class = spam</text>
</g>
<!-- 3&#45;&gt;5 -->
<g id="edge5" class="edge">
<title>3&#45;&gt;5</title>
<path fill="none" stroke="black" d="M156.84,-103.73C161.39,-95.43 166.19,-86.67 170.78,-78.28"/>
<polygon fill="black" stroke="black" points="173.79,-80.08 175.53,-69.63 167.65,-76.71 173.79,-80.08"/>
</g>
</g>
</svg>
