<?xml version="1.0" encoding="UTF-8" standalone="no"?>
<!DOCTYPE svg PUBLIC "-//W3C//DTD SVG 1.1//EN"
 "http://www.w3.org/Graphics/SVG/1.1/DTD/svg11.dtd">
<!-- Generated by graphviz version 7.1.0 (20230121.1956)
 -->
<!-- Title: Tree Pages: 1 -->
<svg width="773pt" height="477pt"
 viewBox="0.00 0.00 773.00 477.00" xmlns="http://www.w3.org/2000/svg" xmlns:xlink="http://www.w3.org/1999/xlink">
<g id="graph0" class="graph" transform="scale(1 1) rotate(0) translate(4 473)">
<title>Tree</title>
<polygon fill="white" stroke="none" points="-4,4 -4,-473 769,-473 769,4 -4,4"/>
<!-- 0 -->
<g id="node1" class="node">
<title>0</title>
<polygon fill="#f5cfb4" stroke="black" points="571,-469 431,-469 431,-401 571,-401 571,-469"/>
<text text-anchor="middle" x="501" y="-453.8" font-family="Helvetica,sans-Serif" font-size="14.00">x[25] &lt;= 0.5</text>
<text text-anchor="middle" x="501" y="-438.8" font-family="Helvetica,sans-Serif" font-size="14.00">gini = 0.473</text>
<text text-anchor="middle" x="501" y="-423.8" font-family="Helvetica,sans-Serif" font-size="14.00">samples = 5330</text>
<text text-anchor="middle" x="501" y="-408.8" font-family="Helvetica,sans-Serif" font-size="14.00">value = [3289, 2041]</text>
</g>
<!-- 1 -->
<g id="node2" class="node">
<title>1</title>
<polygon fill="#f5ccaf" stroke="black" points="496,-365 356,-365 356,-297 496,-297 496,-365"/>
<text text-anchor="middle" x="426" y="-349.8" font-family="Helvetica,sans-Serif" font-size="14.00">x[0] &lt;= 940950.0</text>
<text text-anchor="middle" x="426" y="-334.8" font-family="Helvetica,sans-Serif" font-size="14.00">gini = 0.468</text>
<text text-anchor="middle" x="426" y="-319.8" font-family="Helvetica,sans-Serif" font-size="14.00">samples = 4993</text>
<text text-anchor="middle" x="426" y="-304.8" font-family="Helvetica,sans-Serif" font-size="14.00">value = [3127, 1866]</text>
</g>
<!-- 0&#45;&gt;1 -->
<g id="edge1" class="edge">
<title>0&#45;&gt;1</title>
<path fill="none" stroke="black" d="M476.44,-400.6C470.36,-392.32 463.75,-383.34 457.39,-374.69"/>
<polygon fill="black" stroke="black" points="460.25,-372.68 451.51,-366.69 454.61,-376.82 460.25,-372.68"/>
<text text-anchor="middle" x="446.84" y="-386.49" font-family="Helvetica,sans-Serif" font-size="14.00">True</text>
</g>
<!-- 10 -->
<g id="node11" class="node">
<title>10</title>
<polygon fill="#f0f8fd" stroke="black" points="639.5,-365 514.5,-365 514.5,-297 639.5,-297 639.5,-365"/>
<text text-anchor="middle" x="577" y="-349.8" font-family="Helvetica,sans-Serif" font-size="14.00">x[4] &lt;= 0.5</text>
<text text-anchor="middle" x="577" y="-334.8" font-family="Helvetica,sans-Serif" font-size="14.00">gini = 0.499</text>
<text text-anchor="middle" x="577" y="-319.8" font-family="Helvetica,sans-Serif" font-size="14.00">samples = 337</text>
<text text-anchor="middle" x="577" y="-304.8" font-family="Helvetica,sans-Serif" font-size="14.00">value = [162, 175]</text>
</g>
<!-- 0&#45;&gt;10 -->
<g id="edge10" class="edge">
<title>0&#45;&gt;10</title>
<path fill="none" stroke="black" d="M525.89,-400.6C532.05,-392.32 538.75,-383.34 545.19,-374.69"/>
<polygon fill="black" stroke="black" points="547.99,-376.8 551.15,-366.69 542.37,-372.61 547.99,-376.8"/>
<text text-anchor="middle" x="555.67" y="-386.51" font-family="Helvetica,sans-Serif" font-size="14.00">False</text>
</g>
<!-- 2 -->
<g id="node3" class="node">
<title>2</title>
<polygon fill="#f5ceb2" stroke="black" points="352,-261 212,-261 212,-193 352,-193 352,-261"/>
<text text-anchor="middle" x="282" y="-245.8" font-family="Helvetica,sans-Serif" font-size="14.00">x[27] &lt;= 0.5</text>
<text text-anchor="middle" x="282" y="-230.8" font-family="Helvetica,sans-Serif" font-size="14.00">gini = 0.471</text>
<text text-anchor="middle" x="282" y="-215.8" font-family="Helvetica,sans-Serif" font-size="14.00">samples = 4818</text>
<text text-anchor="middle" x="282" y="-200.8" font-family="Helvetica,sans-Serif" font-size="14.00">value = [2994, 1824]</text>
</g>
<!-- 1&#45;&gt;2 -->
<g id="edge2" class="edge">
<title>1&#45;&gt;2</title>
<path fill="none" stroke="black" d="M378.85,-296.6C365.92,-287.44 351.77,-277.42 338.38,-267.94"/>
<polygon fill="black" stroke="black" points="340.68,-265.27 330.49,-262.35 336.63,-270.98 340.68,-265.27"/>
</g>
<!-- 9 -->
<g id="node10" class="node">
<title>9</title>
<polygon fill="#eda978" stroke="black" points="487.5,-253.5 370.5,-253.5 370.5,-200.5 487.5,-200.5 487.5,-253.5"/>
<text text-anchor="middle" x="429" y="-238.3" font-family="Helvetica,sans-Serif" font-size="14.00">gini = 0.365</text>
<text text-anchor="middle" x="429" y="-223.3" font-family="Helvetica,sans-Serif" font-size="14.00">samples = 175</text>
<text text-anchor="middle" x="429" y="-208.3" font-family="Helvetica,sans-Serif" font-size="14.00">value = [133, 42]</text>
</g>
<!-- 1&#45;&gt;9 -->
<g id="edge9" class="edge">
<title>1&#45;&gt;9</title>
<path fill="none" stroke="black" d="M426.98,-296.6C427.28,-286.47 427.61,-275.28 427.91,-264.93"/>
<polygon fill="black" stroke="black" points="431.4,-265.32 428.2,-255.22 424.41,-265.11 431.4,-265.32"/>
</g>
<!-- 3 -->
<g id="node4" class="node">
<title>3</title>
<polygon fill="#f4ccaf" stroke="black" points="288,-157 148,-157 148,-89 288,-89 288,-157"/>
<text text-anchor="middle" x="218" y="-141.8" font-family="Helvetica,sans-Serif" font-size="14.00">x[26] &lt;= 0.5</text>
<text text-anchor="middle" x="218" y="-126.8" font-family="Helvetica,sans-Serif" font-size="14.00">gini = 0.468</text>
<text text-anchor="middle" x="218" y="-111.8" font-family="Helvetica,sans-Serif" font-size="14.00">samples = 4577</text>
<text text-anchor="middle" x="218" y="-96.8" font-family="Helvetica,sans-Serif" font-size="14.00">value = [2869, 1708]</text>
</g>
<!-- 2&#45;&gt;3 -->
<g id="edge3" class="edge">
<title>2&#45;&gt;3</title>
<path fill="none" stroke="black" d="M261.04,-192.6C255.91,-184.41 250.33,-175.53 244.96,-166.96"/>
<polygon fill="black" stroke="black" points="248.09,-165.37 239.81,-158.76 242.16,-169.09 248.09,-165.37"/>
</g>
<!-- 6 -->
<g id="node7" class="node">
<title>6</title>
<polygon fill="#fdf6f1" stroke="black" points="431.5,-157 306.5,-157 306.5,-89 431.5,-89 431.5,-157"/>
<text text-anchor="middle" x="369" y="-141.8" font-family="Helvetica,sans-Serif" font-size="14.00">x[2] &lt;= 0.5</text>
<text text-anchor="middle" x="369" y="-126.8" font-family="Helvetica,sans-Serif" font-size="14.00">gini = 0.499</text>
<text text-anchor="middle" x="369" y="-111.8" font-family="Helvetica,sans-Serif" font-size="14.00">samples = 241</text>
<text text-anchor="middle" x="369" y="-96.8" font-family="Helvetica,sans-Serif" font-size="14.00">value = [125, 116]</text>
</g>
<!-- 2&#45;&gt;6 -->
<g id="edge6" class="edge">
<title>2&#45;&gt;6</title>
<path fill="none" stroke="black" d="M310.49,-192.6C317.7,-184.15 325.54,-174.96 333.06,-166.13"/>
<polygon fill="black" stroke="black" points="335.64,-168.5 339.47,-158.63 330.31,-163.96 335.64,-168.5"/>
</g>
<!-- 4 -->
<g id="node5" class="node">
<title>4</title>
<polygon fill="#f4caac" stroke="black" points="140,-53 0,-53 0,0 140,0 140,-53"/>
<text text-anchor="middle" x="70" y="-37.8" font-family="Helvetica,sans-Serif" font-size="14.00">gini = 0.465</text>
<text text-anchor="middle" x="70" y="-22.8" font-family="Helvetica,sans-Serif" font-size="14.00">samples = 4335</text>
<text text-anchor="middle" x="70" y="-7.8" font-family="Helvetica,sans-Serif" font-size="14.00">value = [2741, 1594]</text>
</g>
<!-- 3&#45;&gt;4 -->
<g id="edge4" class="edge">
<title>3&#45;&gt;4</title>
<path fill="none" stroke="black" d="M165.82,-88.68C150.94,-79.18 134.76,-68.85 120.01,-59.43"/>
<polygon fill="black" stroke="black" points="122.14,-56.64 111.83,-54.21 118.37,-62.54 122.14,-56.64"/>
</g>
<!-- 5 -->
<g id="node6" class="node">
<title>5</title>
<polygon fill="#fcf1e9" stroke="black" points="283.5,-53 158.5,-53 158.5,0 283.5,0 283.5,-53"/>
<text text-anchor="middle" x="221" y="-37.8" font-family="Helvetica,sans-Serif" font-size="14.00">gini = 0.498</text>
<text text-anchor="middle" x="221" y="-22.8" font-family="Helvetica,sans-Serif" font-size="14.00">samples = 242</text>
<text text-anchor="middle" x="221" y="-7.8" font-family="Helvetica,sans-Serif" font-size="14.00">value = [128, 114]</text>
</g>
<!-- 3&#45;&gt;5 -->
<g id="edge5" class="edge">
<title>3&#45;&gt;5</title>
<path fill="none" stroke="black" d="M219.06,-88.68C219.3,-80.9 219.57,-72.56 219.82,-64.63"/>
<polygon fill="black" stroke="black" points="223.31,-65.01 220.13,-54.91 216.31,-64.79 223.31,-65.01"/>
</g>
<!-- 7 -->
<g id="node8" class="node">
<title>7</title>
<polygon fill="#e4f2fb" stroke="black" points="424.5,-53 307.5,-53 307.5,0 424.5,0 424.5,-53"/>
<text text-anchor="middle" x="366" y="-37.8" font-family="Helvetica,sans-Serif" font-size="14.00">gini = 0.497</text>
<text text-anchor="middle" x="366" y="-22.8" font-family="Helvetica,sans-Serif" font-size="14.00">samples = 203</text>
<text text-anchor="middle" x="366" y="-7.8" font-family="Helvetica,sans-Serif" font-size="14.00">value = [94, 109]</text>
</g>
<!-- 6&#45;&gt;7 -->
<g id="edge7" class="edge">
<title>6&#45;&gt;7</title>
<path fill="none" stroke="black" d="M367.94,-88.68C367.7,-80.9 367.43,-72.56 367.18,-64.63"/>
<polygon fill="black" stroke="black" points="370.69,-64.79 366.87,-54.91 363.69,-65.01 370.69,-64.79"/>
</g>
<!-- 8 -->
<g id="node9" class="node">
<title>8</title>
<polygon fill="#eb9d66" stroke="black" points="545,-53 443,-53 443,0 545,0 545,-53"/>
<text text-anchor="middle" x="494" y="-37.8" font-family="Helvetica,sans-Serif" font-size="14.00">gini = 0.301</text>
<text text-anchor="middle" x="494" y="-22.8" font-family="Helvetica,sans-Serif" font-size="14.00">samples = 38</text>
<text text-anchor="middle" x="494" y="-7.8" font-family="Helvetica,sans-Serif" font-size="14.00">value = [31, 7]</text>
</g>
<!-- 6&#45;&gt;8 -->
<g id="edge8" class="edge">
<title>6&#45;&gt;8</title>
<path fill="none" stroke="black" d="M413.07,-88.68C425.28,-79.45 438.52,-69.44 450.69,-60.24"/>
<polygon fill="black" stroke="black" points="452.68,-63.13 458.54,-54.31 448.45,-57.55 452.68,-63.13"/>
</g>
<!-- 11 -->
<g id="node12" class="node">
<title>11</title>
<polygon fill="#d7ebfa" stroke="black" points="636.5,-261 511.5,-261 511.5,-193 636.5,-193 636.5,-261"/>
<text text-anchor="middle" x="574" y="-245.8" font-family="Helvetica,sans-Serif" font-size="14.00">x[1] &lt;= 8300.0</text>
<text text-anchor="middle" x="574" y="-230.8" font-family="Helvetica,sans-Serif" font-size="14.00">gini = 0.494</text>
<text text-anchor="middle" x="574" y="-215.8" font-family="Helvetica,sans-Serif" font-size="14.00">samples = 295</text>
<text text-anchor="middle" x="574" y="-200.8" font-family="Helvetica,sans-Serif" font-size="14.00">value = [131, 164]</text>
</g>
<!-- 10&#45;&gt;11 -->
<g id="edge11" class="edge">
<title>10&#45;&gt;11</title>
<path fill="none" stroke="black" d="M576.02,-296.6C575.79,-289.03 575.55,-280.87 575.32,-272.9"/>
<polygon fill="black" stroke="black" points="578.82,-272.88 575.03,-262.99 571.82,-273.09 578.82,-272.88"/>
</g>
<!-- 14 -->
<g id="node15" class="node">
<title>14</title>
<polygon fill="#eeae7f" stroke="black" points="765,-253.5 655,-253.5 655,-200.5 765,-200.5 765,-253.5"/>
<text text-anchor="middle" x="710" y="-238.3" font-family="Helvetica,sans-Serif" font-size="14.00">gini = 0.387</text>
<text text-anchor="middle" x="710" y="-223.3" font-family="Helvetica,sans-Serif" font-size="14.00">samples = 42</text>
<text text-anchor="middle" x="710" y="-208.3" font-family="Helvetica,sans-Serif" font-size="14.00">value = [31, 11]</text>
</g>
<!-- 10&#45;&gt;14 -->
<g id="edge14" class="edge">
<title>10&#45;&gt;14</title>
<path fill="none" stroke="black" d="M620.55,-296.6C635.61,-285.05 652.45,-272.13 667.43,-260.65"/>
<polygon fill="black" stroke="black" points="669.48,-263.49 675.28,-254.63 665.22,-257.94 669.48,-263.49"/>
</g>
<!-- 12 -->
<g id="node13" class="node">
<title>12</title>
<polygon fill="#eca470" stroke="black" points="588,-149.5 486,-149.5 486,-96.5 588,-96.5 588,-149.5"/>
<text text-anchor="middle" x="537" y="-134.3" font-family="Helvetica,sans-Serif" font-size="14.00">gini = 0.34</text>
<text text-anchor="middle" x="537" y="-119.3" font-family="Helvetica,sans-Serif" font-size="14.00">samples = 23</text>
<text text-anchor="middle" x="537" y="-104.3" font-family="Helvetica,sans-Serif" font-size="14.00">value = [18, 5]</text>
</g>
<!-- 11&#45;&gt;12 -->
<g id="edge12" class="edge">
<title>11&#45;&gt;12</title>
<path fill="none" stroke="black" d="M561.88,-192.6C558.13,-182.25 553.98,-170.8 550.16,-160.27"/>
<polygon fill="black" stroke="black" points="553.54,-159.34 546.84,-151.13 546.96,-161.72 553.54,-159.34"/>
</g>
<!-- 13 -->
<g id="node14" class="node">
<title>13</title>
<polygon fill="#c6e3f7" stroke="black" points="731.5,-149.5 606.5,-149.5 606.5,-96.5 731.5,-96.5 731.5,-149.5"/>
<text text-anchor="middle" x="669" y="-134.3" font-family="Helvetica,sans-Serif" font-size="14.00">gini = 0.486</text>
<text text-anchor="middle" x="669" y="-119.3" font-family="Helvetica,sans-Serif" font-size="14.00">samples = 272</text>
<text text-anchor="middle" x="669" y="-104.3" font-family="Helvetica,sans-Serif" font-size="14.00">value = [113, 159]</text>
</g>
<!-- 11&#45;&gt;13 -->
<g id="edge13" class="edge">
<title>11&#45;&gt;13</title>
<path fill="none" stroke="black" d="M605.11,-192.6C615.46,-181.49 626.99,-169.11 637.38,-157.95"/>
<polygon fill="black" stroke="black" points="639.77,-160.52 644.03,-150.81 634.65,-155.75 639.77,-160.52"/>
</g>
</g>
</svg>
